<svg width="36" height="36" viewBox="0 0 36 36" fill="none" xmlns="http://www.w3.org/2000/svg">
<path d="M30.5448 12.0501C28.5518 7.34093 23.853 4.03289 18.3749 4.03289L17.9834 17.4844L30.5448 12.0501Z" fill="#D6D6D6"/>
<path d="M17.9082 17.7534H2.96777C2.96777 25.926 9.65744 32.5508 17.9082 32.5508C24.1501 32.5508 29.4966 28.7603 31.7317 23.3772L17.9082 17.7534Z" fill="#D6D6D6"/>
<path d="M17.2235 1.91785C8.77059 1.91785 1.91895 8.70403 1.91895 17.0762H17.2235V1.91785Z" fill="#D6D6D6"/>
<path d="M33.1911 23.375C33.9116 21.6409 34.3082 19.7423 34.3082 17.7511C34.3082 15.7248 33.897 13.7937 33.1523 12.0349L19.3682 17.7511L33.1911 23.375Z" fill="#D6D6D6"/>
<path d="M17.9085 28.8223C11.7359 28.8223 6.73242 23.8669 6.73242 17.7537C6.73242 11.6408 11.7359 6.68512 17.9085 6.68512C24.0799 6.68512 29.0834 11.6408 29.0834 17.7537C29.0834 23.8669 24.0799 28.8223 17.9085 28.8223Z" fill="#EFF2FC"/>
</svg>
