<svg width="36" height="36" viewBox="0 0 36 36" fill="none" xmlns="http://www.w3.org/2000/svg">
<g clip-path="url(#clip0_4015_65749)">
<path d="M28.3313 31.4853C28.3313 32.6337 27.4151 33.5645 26.284 33.5645H8.37232C7.24195 33.5645 6.3252 32.6337 6.3252 31.4853V7.41953C6.3252 6.27148 7.24195 5.34038 8.37232 5.34038H26.284C27.4151 5.34038 28.3313 6.27148 28.3313 7.41953V31.4853Z" fill="#D6D6D6"/>
<path d="M27.0353 30.073C27.0353 31.1113 26.2267 31.9531 25.2298 31.9531H9.42798C8.43029 31.9531 7.62207 31.1113 7.62207 30.073V8.31081C7.62207 7.27278 8.43029 6.43089 9.42798 6.43089H25.2298C26.2267 6.43089 27.0353 7.27278 27.0353 8.31081V30.073Z" fill="#EFF2FC"/>
<path d="M19.4699 3.45421C19.474 3.3992 19.478 3.34418 19.478 3.28794C19.478 2.06323 18.5004 1.07052 17.2948 1.07052C16.0881 1.07052 15.1107 2.06323 15.1107 3.28794C15.1107 3.34006 15.1152 3.39075 15.1186 3.44185C12.7802 3.59287 11.5967 4.88619 11.5967 6.05032V7.39453H23.0602V6.05032C23.0602 4.86374 22.2522 3.57536 19.4699 3.45421Z" fill="#D6D6D6"/>
<path d="M9 12H26V11H9V12Z" fill="#D6D6D6"/>
<path d="M9 14H26V13H9V14Z" fill="#D6D6D6"/>
<path d="M9 16H26V15H9V16Z" fill="#D6D6D6"/>
<path d="M9 18H26V17H9V18Z" fill="#D6D6D6"/>
<path d="M9 20H26V19H9V20Z" fill="#D6D6D6"/>
<path d="M9 22H26V21H9V22Z" fill="#D6D6D6"/>
<path d="M9 24H26V23H9V24Z" fill="#D6D6D6"/>
<path d="M9 26H26V25H9V26Z" fill="#D6D6D6"/>
<path d="M28.3321 24.0293V7.41913C28.3321 6.27107 27.4159 5.33997 26.2848 5.33997H22.9561C22.6622 4.39672 21.7004 3.54989 19.4705 3.45285C19.4721 3.43183 19.4735 3.41081 19.475 3.3898C21.7016 3.48808 22.6616 4.33428 22.9553 5.27692H26.2848C27.4159 5.27692 28.3321 6.20781 28.3321 7.35587V24.0293ZM19.4782 3.25031C19.4595 2.07567 18.5418 1.12294 17.3936 1.07122V1.01106C18.5533 1.0636 19.4786 2.0324 19.4786 3.22352C19.4786 3.23238 19.4784 3.24145 19.4782 3.25031Z" fill="#41B0C2"/>
<path d="M26.2848 33.502H17.3936V31.9545H25.2301C26.2269 31.9545 27.0356 31.1127 27.0356 30.0744V8.31223C27.0356 7.2742 26.2269 6.43232 25.2301 6.43232H23.0608V6.05012C23.0608 5.8144 23.029 5.57478 22.9561 5.34113H26.2848C27.4159 5.34113 28.3321 6.27223 28.3321 7.42029V24.0305V31.423C28.3321 32.5712 27.4159 33.502 26.2848 33.502Z" fill="#D6D6D6"/>
<path d="M17.3936 28.4004V28.2378L17.4737 28.319L17.3936 28.4004Z" fill="#F46E16"/>
</g>
<defs>
<clipPath id="clip0_4015_65749">
<rect width="23" height="33" fill="white" transform="translate(6 1)"/>
</clipPath>
</defs>
</svg>
