<svg width="36" height="36" viewBox="0 0 36 36" fill="none" xmlns="http://www.w3.org/2000/svg">
<g clip-path="url(#clip0_4015_65808)">
<path d="M15.1953 12.2353C13.6419 13.1541 11.6324 12.6205 10.7404 11.0415C9.90227 9.55905 10.404 7.60773 11.8531 6.71169C13.3959 5.7566 15.412 6.26043 16.3312 7.81175C17.2387 9.34643 16.7291 11.3266 15.1953 12.2353ZM19.095 10.6013C19.2038 10.5027 19.3089 10.4127 19.4017 10.3439C19.8192 10.0303 21.127 9.56436 21.4076 9.54316H21.4097C21.6044 9.54316 21.8226 9.67142 22.08 9.88972C22.0992 9.4364 22.0813 8.98109 22.0279 8.52571L20.5881 8.18158C20.5128 7.80358 20.4061 7.42771 20.2704 7.05907L21.3274 6.01806C21.1979 5.73746 21.0562 5.46216 20.8965 5.19335C20.7376 4.9241 20.565 4.6667 20.3792 4.42034L18.9595 4.84473C18.702 4.54742 18.4234 4.27406 18.1269 4.02726L18.5196 2.59896C18.0117 2.23562 17.4696 1.93176 16.9031 1.68827L15.8828 2.76713C15.5146 2.64005 15.1374 2.54271 14.7555 2.47593L14.3795 1.03984C13.7653 0.979547 13.1442 0.986093 12.5264 1.06223L12.1798 2.50119C11.8018 2.57533 11.4279 2.68121 11.0589 2.81807L10.0167 1.7644C9.73927 1.89023 9.46073 2.03122 9.19192 2.19128C8.92274 2.35004 8.66571 2.52357 8.41972 2.70689L8.84286 4.12908C8.54599 4.38729 8.27144 4.66471 8.02582 4.9612L6.5979 4.56937C6.23462 5.07681 5.93039 5.61774 5.68684 6.18429L6.76532 7.20529C6.63868 7.57268 6.54334 7.95061 6.47538 8.33185L5.04171 8.70904C4.98061 9.32323 4.98634 9.94472 5.06086 10.5641L6.50144 10.9071C6.57558 11.2863 6.68227 11.6602 6.81539 12.0308L5.76304 13.0718C5.88843 13.3525 6.0306 13.6266 6.19023 13.8946C6.3511 14.1646 6.52339 14.4228 6.70546 14.6684L8.12728 14.2448C8.38592 14.5426 8.66571 14.8159 8.96065 15.0614L8.56918 16.491C9.07625 16.8531 9.61631 17.1581 10.1829 17.3997L11.2043 16.3228C11.5733 16.4507 11.9472 16.546 12.332 16.6116L12.7084 18.0477C12.9829 18.0741 13.2591 18.0859 13.5369 18.0859L13.5344 18.0403C13.5344 14.5193 15.8811 11.5499 19.095 10.6013Z" fill="#D6D6D6"/>
<circle cx="22" cy="15" r="9" fill="#EFF2FC"/>
<circle cx="22" cy="40" r="14" fill="#EFF2FC"/>
</g>
<defs>
<clipPath id="clip0_4015_65808">
<rect width="36" height="36" fill="white"/>
</clipPath>
</defs>
</svg>
