<svg width="622" height="891" viewBox="0 0 622 891" fill="none" xmlns="http://www.w3.org/2000/svg">
<g clip-path="url(#clip0_4001_64836)">
<rect width="622" height="890.088" transform="matrix(-1 0 0 1 622 0)" fill="#F0F2FC"/>
<g clip-path="url(#clip1_4001_64836)">
<circle cx="322.115" cy="322.115" r="322.115" transform="matrix(-1 0 0 1 439.416 167.223)" fill="url(#paint0_linear_4001_64836)"/>
<path d="M263.956 394.619L285.281 422.046L288.49 442.928L282.961 460.283L268.105 463.567L249.745 455.758L251.505 432.366L242.449 409.794V401.965L252.508 395.627L263.956 394.619Z" fill="white"/>
<path d="M238.55 293.09L247.352 308.018L263.956 394.619L253.391 401.965H242.448L212.309 329.191L209.608 308.018L238.55 293.09Z" fill="#F1BFAD"/>
<path d="M222.587 165.655L188.091 164.373L182.166 195.096L186.46 251.38L207.659 265.79L246.411 308.346L249.508 251.38L248.181 221.195L239.932 191.046L222.587 165.655Z" fill="#B2ACA1"/>
<path d="M261.314 757.72V762.592L259.806 780.969L221.304 779.964L194.067 768.635L152.606 766.121L148.586 744.972V740.101L261.314 757.72Z" fill="#EFCC95"/>
<path d="M129.406 832.268L160.415 838.501V843.363L145.982 851.478L123.171 848.398L109.582 825.256L104.549 798.073V793.197L129.406 832.268Z" fill="#EFCC95"/>
<path d="M202.934 722.751L219.547 736.841L255.275 746.155L261.314 757.72L259.806 776.093L221.304 775.092L194.067 763.758L152.606 761.242L148.586 740.101L154.918 717.967L202.934 722.751Z" fill="#C39749"/>
<path d="M238.55 390.022L227.455 572.253L215.009 616.766L208.139 727.164L176.015 735.58L149.591 722.992L168.059 409.794L226.843 382.539L238.55 390.022Z" fill="#17282F"/>
<path d="M143.192 771.028L146.007 790.553L159.721 819.329L160.415 838.501L145.982 846.609L123.171 843.532L109.582 820.384L104.549 793.197L107.319 769.808L143.192 771.028Z" fill="#C39749"/>
<path d="M237.163 381.785L209.983 446.705L180.612 476.892L166.598 606.991L154.465 663.845L155.379 772.564L125.854 787.166L99.0171 774.072V646.749L103.923 594.923L87.1931 405.943L157.893 381.785L227.346 365.182L237.163 381.785Z" fill="#23373F"/>
<path d="M231.503 357.995L232.2 375.741L200.176 410.468L136.503 422.046L99.0173 411.218V380.65L231.503 357.995Z" fill="#9F5345"/>
<path d="M136.946 161.04L133.733 177.708L130.686 191.804L139.274 210.168L187.092 229.796L199.735 193.557L184.822 167.564L136.035 149.826L136.946 161.04Z" fill="#C59D8D"/>
<path d="M195.259 191.545L185.825 218.718L142.231 200.614L133.732 177.708L121.657 207.902L103.924 386.228L153.91 401.965L199.735 392.394L232.2 357.995L222.586 212.438L211.87 188.299L195.259 191.545Z" fill="#B2ACA1"/>
<path d="M197.759 188.78L209.102 229.342L220.122 282.351L218.793 409.794L242.449 386.141L242.192 224.264L223.299 185.76L203.937 170.165L197.759 188.78Z" fill="#F8A53C"/>
<path d="M133.732 177.708L142.231 207.903L172.139 250.691L180.613 305.161V431.779L140.025 438.324L99.0173 428.055L80.9975 416.114L71.1027 231.504L103.54 200.614L133.732 177.708Z" fill="#F8A53C"/>
<path d="M80.9976 349.146L99.0174 361.079L103.924 355.951L99.0174 343.338L80.9976 331.407V349.146Z" fill="#E2E0DC"/>
<path d="M99.0173 361.079L140.025 371.36V353.614L99.0173 343.338V361.079Z" fill="#F6F2EB"/>
<path d="M80.9976 391.674L99.0174 403.615L103.924 398.48L99.0174 385.87L80.9976 373.938V391.674Z" fill="#E2E0DC"/>
<path d="M99.0173 403.616L140.025 413.889V396.143L99.0173 385.87V403.616Z" fill="#F6F2EB"/>
<path d="M130.685 128.767V141.686L136.946 161.04L138.517 154.819L142.231 132.269L130.685 128.767Z" fill="#904133"/>
<path d="M220.102 146.687L210.74 194.062L201.423 200.614L180.613 197.079L155.379 176.827L152.606 164.116L138.517 154.819L136.453 136.254L140.553 129.471L220.102 146.687Z" fill="#F1BFAD"/>
<path d="M221.663 131.151L206.797 144.474L173.723 147.837V162.299L200.948 164.057L205.993 153.799L208.786 152.001L210.302 158.812L221.663 146.687V131.151Z" fill="#6B5F4E"/>
<path d="M208.724 149.596L204.318 152.449L199.469 162.307L174.048 160.669V148.295L206.479 144.996L219.726 133.123V145.671L210.138 155.904L209.182 151.628L209.525 150.164L208.724 149.596ZM200.828 164.669L206.073 154.007L207.225 153.261L208.866 160.582L209.667 161.139L210.763 158.558L221.989 146.572V131.037L222.793 128.61L221.989 128.052L205.518 142.821L171.781 146.256V162.792L172.59 163.362L173.7 162.909L200.828 164.669Z" fill="#65686D"/>
<path d="M141.788 132.964L168.139 150.695L169.536 148.641L168.139 145.129L141.795 131.151H137.88L135.045 137.096L135.707 139.647L137.643 140.165L139.909 133.282L141.788 132.964Z" fill="#9F988F"/>
<path d="M168.139 153.398L172.59 155.969L173.229 151.02L172.59 146.813L168.139 144.245V153.398Z" fill="#9F988F"/>
<path d="M209.525 150.164L205.112 153.012L200.263 162.874L174.852 161.231V148.862L207.28 145.567L220.528 133.69V146.241L210.937 156.472L209.525 150.164ZM201.632 165.239L206.864 154.575L208.032 153.826L209.667 161.139L222.793 147.13V128.61L206.319 143.398L172.59 146.814V163.362L201.632 165.239Z" fill="#9F988F"/>
<path d="M148.907 141.915L159.053 166.111L171.328 180.934L174.205 174.763L160.452 159.489L148.907 137.504V141.915Z" fill="#50413C"/>
<path d="M189.798 172.709L173.23 172.067L169.535 180.934L172.167 191.421L177.909 197.072L185.696 190.799L189.798 172.709Z" fill="#F6F2EB"/>
<path d="M212.308 163.24L219.45 151.802L218.793 164.057L215.873 177.708L212.308 163.24Z" fill="#F6F2EB"/>
<path d="M212.943 161.097L208.286 156.226L205.618 158.11L201.961 165.839L190.759 171.544L180.389 184.06L177.91 197.072L181.006 200.679L201.961 205.642L214.293 196.977L218.793 185.87L216.389 166.959L212.943 161.097Z" fill="white"/>
<path d="M170.947 180.914L172.757 181.969L175.953 174.663L174.151 173.613L170.947 180.914Z" fill="#50413C"/>
<path d="M137.364 123.019L152.166 131.562L148.412 136.155L134.004 127.771L134.121 124.901L137.364 123.019Z" fill="#50413C"/>
<path d="M150.53 146.054L153.124 164.749L156.377 162.874V138.863L152.33 139.916L150.53 146.054Z" fill="#1F1919"/>
<path d="M148.907 138.037L153.124 140.737L156.377 138.863L152.165 131.562L148.907 133.436V138.037Z" fill="#302624"/>
<path d="M134.121 124.901L148.907 133.436L153.124 140.737V164.749L148.907 167.183L134.121 158.643L129.909 151.342V127.333L134.121 124.901Z" fill="#141211"/>
<path d="M139.1 138.425L148.412 134.544L151.914 140.623L143.901 147.06L139.1 138.425Z" fill="#C9322B"/>
<path d="M134.606 138.163L141.494 138.539L148.412 134.544L134.614 126.586L127.701 130.574L134.606 138.163Z" fill="#F1434A"/>
<path d="M145.012 167.472L151.914 163.484V140.623L145.012 144.618L143.267 154.993L145.012 167.472Z" fill="#AA2222"/>
<path d="M124.196 132.6L127.701 130.573L141.494 138.539L145.011 144.618V167.472L141.494 169.488L127.701 161.522L124.196 155.451V132.6Z" fill="#881B1D"/>
<path d="M198.04 120.565L224.145 125.01V129.989L198.04 145.094H162.289H161.876L125.018 123.811V118.812L161.876 120.565H198.04Z" fill="#DE9625"/>
<path d="M198.04 87.7635L224.145 102.846V125.01L198.04 140.085H162.289H161.876L125.018 118.812V96.6278L151.12 81.5653L198.04 87.7635Z" fill="#FAEF5B"/>
<path d="M198.04 145.093L224.145 129.988V107.839L232.628 117.246L233.388 116.955V117.699L236.041 135.876L236.211 136.212V136.966L210.101 152.038L177.683 149.885L161.876 145.093V141.773L171.45 143.876L198.04 145.093Z" fill="#DE9625"/>
<path d="M224.145 126.707V104.523L233.388 116.955L236.211 136.211L210.101 151.296L177.683 149.126L161.876 141.772H198.04L224.145 126.707Z" fill="#FAEF5B"/>
<path d="M197.622 89.2995L222.607 103.722V124.127L197.645 138.554H162.29L126.544 117.921V97.5115L151.536 83.0962L197.622 89.2995Z" fill="#FBC13B"/>
<path d="M139.281 64.0407L153.512 56.3738L171.826 54.1883L179.918 107.058L126.511 97.5113L129.533 78.8543L139.281 64.0407Z" fill="#FBC13B"/>
<path d="M190.383 59.3634L209.787 70.2539L219.538 85.0725L222.607 103.722L171.45 107.058L171.826 54.1883L190.383 59.3634Z" fill="#FBC13B"/>
<path d="M181.817 90.0338L167.803 78.1276L146.682 70.2665L167.803 76.5942L183.353 88.117L194.085 110.829L197.644 136.914L162.488 136.67L194.416 135.092L192.18 111.723L181.817 90.0338Z" fill="#F0B027"/>
<path d="M222.537 122.534L221.258 114.735L221.813 102.401L222.537 122.534Z" fill="#F0B027"/>
<path d="M208.271 73.7318L219.012 96.4339L222.537 122.534L217.103 97.3349L206.725 75.6411L192.706 63.7424L171.604 55.8664L192.706 62.2115L208.271 73.7318Z" fill="#F0B027"/>
<path d="M161.617 138.181V138.166L127.278 118.346V118.349L161.617 138.181Z" fill="#EAC14D"/>
<path d="M161.617 138.166V125.558L151.585 108.128L137.344 99.9158L127.278 105.718V118.346L161.617 138.166Z" fill="#ED9D33"/>
<path d="M87.3078 471.042L102.034 485.457L111.598 508.61L107.07 512.13L95.7414 498.536L91.5868 508.095L92.4705 519.428L101.778 534.008L98.0738 543.524L78.6302 532.579L62.7836 512.379V473.504L87.3078 471.042Z" fill="white"/>
<path d="M105.811 324.026L92.2268 360.273V394.619L87.308 471.042L74.0975 476.892L62.7839 473.504L48.4333 392.737L55.6023 350.826L60.887 315.015L79.0113 305.16L105.811 324.026Z" fill="#F1BFAD"/>
<path d="M97.6856 226.01L71.1028 231.503L62.0294 255.331L57.2426 311.575L75.8573 329.192L111.586 326.167L121.657 262.134L97.6856 226.01Z" fill="#B2ACA1"/>
<g opacity="0.7">
<circle cx="278.267" cy="278.267" r="276.19" transform="matrix(-1 0 0 1 820.557 -59.0264)" stroke="#F6F5F5" stroke-width="4.15324"/>
<circle cx="225.986" cy="225.986" r="224.3" transform="matrix(-1 0 0 1 741.293 271.521)" stroke="#F6F5F5" stroke-width="3.37293"/>
</g>
<g clip-path="url(#clip2_4001_64836)">
<path d="M575.462 286.576V262.63L563.488 241.891L542.754 229.92H518.802L498.066 241.891L486.09 262.627V286.576L498.066 307.316L518.802 319.289H542.754L563.488 307.316L575.462 286.576Z" fill="#EEEFF2"/>
<path d="M573.211 263.232L561.841 243.536L542.148 232.168H519.402L499.71 243.536L488.338 263.229V285.973L499.71 305.67L519.402 317.04H542.148L561.841 305.67L573.211 285.973V263.232ZM577.706 262.028V287.181L565.134 308.963L543.353 321.535H518.196L496.421 308.963L483.844 287.181V262.026L496.421 240.247L518.196 227.673H543.353L565.134 240.247L577.706 262.028Z" fill="#CFD6F2"/>
<path d="M526.611 241.119L531.245 239.829L534.714 240.654L538.335 242.483L536.018 243.821V256.736L539.225 262.29L543.758 264.907L546.162 263.517L546.756 269.994L548.841 295.468L542.236 290.707L533.441 288.771L526.143 292.983L523.041 244.566L526.611 241.119Z" fill="#D1561E"/>
<path d="M538.996 244.094L542.527 257.01L544.553 270.622L544.222 302.357L550.112 296.466L550.048 256.157L546.884 246.776L543.191 241.171L536.863 237.948L531.245 239.829L538.996 244.094Z" fill="#F8A53C"/>
<path d="M523.041 244.566L524.701 252.347L532.604 262.738L534.714 276.301V307.83L524.607 309.46L514.396 306.902L508.957 301.807L508.955 296.225L509.849 294.866L508.954 291.807L508.952 285.635L509.849 284.123L508.951 281.217L508.944 257.584L515.523 250.268L523.041 244.566Z" fill="#F8A53C"/>
<path d="M513.054 257.079L517.589 259.696L520.794 265.248V278.164L517.589 280.014L513.055 277.399L509.849 271.845V258.928L513.054 257.079Z" fill="#D1561E"/>
<path d="M508.957 285.635L514.396 290.73L515.617 289.454L514.396 286.311L508.957 281.217V285.635Z" fill="#E2E0DC"/>
<path d="M514.396 290.73L524.607 293.29V288.871L514.396 286.311V290.73Z" fill="#F6F2EB"/>
<path d="M508.957 296.225L514.396 301.322L515.617 300.044L514.396 296.903L508.957 291.807V296.225Z" fill="#E2E0DC"/>
<path d="M514.396 301.322L524.607 303.879V299.461L514.396 296.903V301.322Z" fill="#F6F2EB"/>
</g>
<g clip-path="url(#clip3_4001_64836)">
<path d="M455.723 131.421V107.475L443.75 86.735L423.015 74.7636H399.064L378.328 86.735L366.351 107.471V131.421L378.328 152.16L399.064 164.133H423.015L443.75 152.16L455.723 131.421Z" fill="#EEEFF2"/>
<path d="M453.472 108.077L442.102 88.3804L422.409 77.0125H399.663L379.971 88.3804L368.6 108.074V130.818L379.971 150.514L399.663 161.884H422.409L442.102 150.514L453.472 130.818V108.077ZM457.967 106.872V132.026L445.395 153.807L423.615 166.38H398.458L376.682 153.807L364.105 132.026V106.871L376.682 85.0907L398.458 72.5179H423.615L445.395 85.0907L457.967 106.872Z" fill="#CFD6F2"/>
<path d="M386.254 132.995L388.432 128.295L396.087 123.875L406.545 122.257L417.001 123.875L430.295 131.552V126.879L417.001 119.202L406.545 117.584L396.087 119.202L388.432 123.622L385.632 129.657L386.254 132.995Z" fill="#50413C"/>
<path d="M385.632 134.332L388.432 140.368L401.73 148.045V143.371L388.432 135.695L385.632 129.657V134.332Z" fill="#141211"/>
<path d="M437.94 130.686L436.041 129.299L412.72 142.763L410.786 146.828V152.857L413.722 155.009L419.383 151.74L423.073 145.598L423.431 144.108L425.221 143.032L425.794 144.232L429.235 146.052L434.787 142.848L437.94 136.973V130.686Z" fill="#614F49"/>
<path d="M417.905 150.505L421.143 144.9L421.898 142.753L424.611 141.186L425.14 141.494L423.784 142.913L422.045 145.013L418.799 150.816L413.612 153.833L413.153 153.249L417.905 150.505Z" fill="#392E2B"/>
<path d="M436.04 136.516V131.154L434.863 130.168L434.974 130.085H435.293L436.755 131.401V137.112L434.252 141.894L429.066 144.911L428.426 144.431L433.359 141.586L436.04 136.516Z" fill="#392E2B"/>
<path d="M418.433 150.816L413.682 153.558L414.14 154.142L419.327 151.124L418.794 150.652L418.433 150.816Z" fill="#F6F2EB"/>
<path d="M433.887 141.894L429.134 144.637L429.594 145.221L434.78 142.203L434.246 141.73L433.887 141.894Z" fill="#F6F2EB"/>
<path d="M436.568 136.825V131.465L435.393 130.474L435.504 130.392H435.822L437.283 131.711V137.422L436.7 137.111L436.568 136.825Z" fill="#B2ACA1"/>
<path d="M436.568 136.825L433.887 141.894L434.416 142.203L435.91 140.353L437.097 137.135L436.568 136.825Z" fill="#E8E2DC"/>
<path d="M421.671 145.21L418.433 150.816L418.961 151.124L419.761 150.59L422.574 145.32L421.808 144.966L421.671 145.21Z" fill="#E8E2DC"/>
<path d="M422.427 143.062L421.671 145.21L422.199 145.518L423.369 143.268L422.759 143.107L422.427 143.062Z" fill="#B2ACA1"/>
<path d="M425.667 141.805L425.14 141.494L422.427 143.062L422.954 143.371L424.311 143.221L425.667 141.805Z" fill="#E8E2DC"/>
<path d="M413.432 156.302L406.764 152.454L401.324 148.741H401.595L409.977 153.336L413.082 155.662L413.432 156.302Z" fill="#9F988F"/>
<path d="M401.324 141.926V148.741L409.806 153.638L410.495 146.478L401.324 141.926Z" fill="#9F988F"/>
<path d="M402.868 144.677L402.955 149.787L403.755 149.326V144.265L402.868 144.677Z" fill="#302624"/>
<path d="M402.506 143.543L401.703 144.007L402.33 144.699L402.955 144.726L403.755 144.265L402.506 143.543Z" fill="#50413C"/>
<path d="M401.703 149.068V144.007L402.955 144.726V149.787L401.703 149.068Z" fill="#141211"/>
<path d="M405.454 138.349L401.324 141.926L409.806 146.822L410.928 145.083L412.431 142.155L411.797 141.731L405.454 138.349Z" fill="#B2ACA1"/>
<path d="M430.93 127.431L428.786 124.878V126.088L430.092 129.215L430.93 127.431Z" fill="#9F988F"/>
<path d="M436.501 128.123L429.834 124.273L428.786 124.878L430.092 128.003L411.915 138.496L406.503 137.743L405.454 138.349L412.121 142.198L416.058 140.709L433.887 130.392L436.501 128.123Z" fill="#E8E2DC"/>
<path d="M412.72 140.21L417.189 137.731V138.653L412.808 141.184L412.72 140.21Z" fill="#302624"/>
<path d="M410.495 139.852V138.925L411.953 139.577L412.808 140.262V141.184L410.495 139.852Z" fill="#141211"/>
<path d="M417.189 137.731L412.808 140.261L410.495 138.925L414.877 136.395L417.189 137.731Z" fill="#50413C"/>
<path d="M430.434 129.985L434.905 127.503V128.425L430.521 130.957L430.434 129.985Z" fill="#302624"/>
<path d="M428.209 129.625V128.699L429.665 129.348L430.52 130.035V130.957L428.209 129.625Z" fill="#141211"/>
<path d="M434.905 127.503L430.521 130.035L428.209 128.699L432.593 126.168L434.905 127.503Z" fill="#50413C"/>
<path d="M425.018 145.072L424.06 144.519L424.412 143.957L425.2 144.349L425.018 145.072Z" fill="#9F988F"/>
<path d="M411.527 151.897L414.209 153.868L418.961 151.124L422.199 145.518L422.954 143.371L425.667 141.805L426.425 143.079L429.662 144.944L434.416 142.203L437.097 137.135V131.773L435.684 130.579L412.941 143.711L411.527 146.538V151.897ZM412.121 142.197L436.501 128.123L438.816 130.074V136.89L435.192 143.74L428.948 147.343L425.018 145.072L424.616 144.396L424.008 144.748L423.606 145.886L419.673 152.699L413.432 156.302L409.806 153.638V146.822L412.121 142.197Z" fill="#D9D1C3"/>
<path d="M423.594 121.434L437.877 123.867V126.596L423.594 134.853H404.03H403.805L383.633 123.207V120.474L403.805 121.434H423.594Z" fill="#DE9625"/>
<path d="M423.594 103.487L437.877 111.737V123.867L423.594 132.118H404.03H403.805L383.633 120.474V108.335L397.916 100.093L423.594 103.487Z" fill="#FAEF5B"/>
<path d="M423.594 134.853L437.877 126.596V114.472L442.519 119.619L442.94 119.461V119.868L444.386 129.81L444.48 129.997V130.409L430.195 138.659L412.454 137.479L403.805 134.853V133.038L409.041 134.192L423.594 134.853Z" fill="#DE9625"/>
<path d="M437.877 124.797V112.656L442.94 119.461L444.48 129.997L430.195 138.254L412.454 137.066L403.805 133.038H423.594L437.877 124.797Z" fill="#FAEF5B"/>
<path d="M423.366 104.327L437.037 112.217V123.383L423.372 131.278H404.03L384.47 119.986V108.822L398.146 100.932L423.366 104.327Z" fill="#FBC13B"/>
<path d="M391.441 90.5028L399.231 86.3084L409.247 85.1153L413.676 114.044L384.451 108.822L386.105 98.6107L391.441 90.5028Z" fill="#FBC13B"/>
<path d="M419.404 87.941L430.022 93.9043L435.357 102.014L437.037 112.217L409.042 114.044L409.247 85.1153L419.404 87.941Z" fill="#FBC13B"/>
<path d="M414.718 104.728L407.045 98.2115L395.489 93.9117L407.045 97.3718L415.555 103.681L421.43 116.106L423.373 130.385L404.138 130.244L421.611 129.385L420.384 116.6L414.718 104.728Z" fill="#F0B027"/>
<path d="M436.996 122.515L436.297 118.245L436.603 111.497L436.996 122.515Z" fill="#F0B027"/>
<path d="M429.19 95.8062L435.068 108.23L436.996 122.515L434.024 108.723L428.347 96.8503L420.677 90.3431L409.126 86.0337L420.677 89.5034L429.19 95.8062Z" fill="#F0B027"/>
<path d="M403.665 131.071V131.067L384.871 120.218V120.222L403.665 131.071Z" fill="#EAC14D"/>
<path d="M403.665 131.067V124.167L398.171 114.632L390.381 110.137L384.871 113.311V120.218L403.665 131.067Z" fill="#ED9D33"/>
</g>
<path d="M262.047 267.75L265.71 271.413V276.594L262.047 280.257H256.866L253.203 276.594V271.413L256.866 267.75H262.047Z" fill="#E5E8F7"/>
<path d="M470.125 263.089L476.518 269.484V278.523L470.125 284.918H461.083L454.688 278.523V269.484L461.083 263.089H470.125Z" fill="#E5E8F7"/>
<path d="M257.278 274.894H466.399V273.207H257.278V274.894Z" fill="#E5E8F7"/>
<path d="M246.869 107.536L250.532 111.199V116.379L246.869 120.042H241.688L238.025 116.379V111.199L241.688 107.536H246.869Z" fill="#E5E8F7"/>
<path d="M348.7 102.874L355.093 109.269V118.309L348.7 124.704H339.658L333.263 118.309V109.269L339.658 102.874H348.7Z" fill="#E5E8F7"/>
<path d="M243.786 114.68H344.974V112.993H243.786V114.68Z" fill="#E5E8F7"/>
<path d="M288.157 758.493L291.82 762.156V767.337L288.157 771H282.977L279.314 767.337V762.156L282.977 758.493H288.157Z" fill="#E5E8F7"/>
<path d="M389.988 753.832L396.381 760.227V769.267L389.988 775.662H380.947L374.552 769.267V760.227L380.947 753.832H389.988Z" fill="#E5E8F7"/>
<path d="M285.074 765.637H386.262V763.951H285.074V765.637Z" fill="#E5E8F7"/>
<path d="M343.64 399.692L350.033 406.087V415.127L343.64 421.522H334.599L328.203 415.127V406.087L334.599 399.692H343.64Z" fill="#E5E8F7"/>
<path d="M292.693 411.498H339.914V409.811H292.693V411.498Z" fill="#E5E8F7"/>
<path d="M294.09 404.354L297.753 408.017V413.197L294.09 416.86H288.909L285.246 413.197V408.017L288.909 404.354H294.09Z" fill="#E5E8F7"/>
<g clip-path="url(#clip4_4001_64836)">
<path d="M452.35 422.065V398.12L440.377 377.381L419.643 365.41H395.692L374.957 377.381L362.98 398.117V422.065L374.957 442.805L395.692 454.777H419.643L440.377 442.805L452.35 422.065Z" fill="#EEEFF2"/>
<path d="M450.1 398.721L438.73 379.027L419.037 367.659H396.292L376.6 379.027L365.229 398.719V421.462L376.6 441.159L396.292 452.528H419.037L438.73 441.159L450.1 421.462V398.721ZM454.594 397.518V422.67L442.023 444.452L420.243 457.023H395.087L373.312 444.452L360.735 422.67V397.516L373.312 375.737L395.087 363.164H420.243L442.023 375.737L454.594 397.518Z" fill="#CFD6F2"/>
<path d="M387.378 415.238L391.82 412.673L402.484 410.956L402.703 410.78L403.293 410.725L428.996 395.884V393.459L426.398 391.955H423.106L426.517 389.987V387.559L423.918 386.055H420.628L424.528 383.804V381.377L421.928 379.876H418.525L415.012 381.905V379.541L412.411 378.04H409.01L388.168 390.074L387.52 390.696L387.721 390.964L409.156 378.589H412.264L414.464 379.649V381.653L397.597 391.392V391.742L398.028 391.992H398.638L418.672 380.424H421.781L423.98 381.485V383.488L403.946 395.055V395.408L404.377 395.657H404.987L420.661 386.607H423.771L425.969 387.667V389.671L410.293 398.719V399.073L410.724 399.32H411.333L423.14 392.504H426.25L428.448 393.564V395.569L402.778 410.389L391.634 412.148L375.381 402.766L378.427 396.331L378.341 395.748L378.004 395.943L374.959 402.373L370.029 405.22L387.378 415.238Z" fill="#573234"/>
<path d="M378.428 396.331L377.608 390.776V388.772L390.182 382.68L393.051 383.389V385.392L387.52 390.696L387.721 390.964L409.157 378.589H412.264L414.464 379.649V381.653L397.597 391.392V391.742L398.028 391.992H398.638L418.672 380.424H421.781L423.98 381.485V383.488L403.946 395.055V395.408L404.377 395.657H404.987L420.662 386.607H423.771L425.969 387.667V389.671L410.293 398.719V399.073L410.724 399.319H411.333L423.14 392.504H426.25L428.448 393.564V395.569L402.778 410.389L391.634 412.148L375.382 402.766L378.428 396.331Z" fill="#D2D2D0"/>
<path d="M412.264 376.584L414.464 377.853V379.649L397.597 389.385V389.737L398.028 389.987H398.638L418.672 378.42H421.781L423.98 379.689V381.485L403.946 393.051V393.402L404.377 393.653H404.987L420.662 384.6H423.771L425.969 385.871V387.667L410.293 396.716V397.069L410.724 397.316H411.333L423.14 390.501H426.25L428.448 391.77V393.564L402.778 408.386L391.634 410.144L375.382 400.759L378.428 394.326L409.157 376.584H412.264Z" fill="white"/>
<path d="M387.378 414.605L385.987 411.797L391.634 410.144V412.148L387.378 414.605Z" fill="#3E7494"/>
<path d="M387.378 414.605L371.127 405.221V403.216L379.395 406.68L387.378 412.601V414.605Z" fill="#315579"/>
<path d="M387.378 412.601L371.127 403.216L375.382 400.759L391.634 410.144L387.378 412.601Z" fill="#4A8AAC"/>
<path d="M390.181 380.676L393.051 382.888V383.389L387.52 388.689L387.721 388.961L390.639 392.933L405.191 404.161V404.662L400.308 407.481H394.543L379.993 399.079L378.427 394.326L377.608 388.772V388.272L390.181 380.676Z" fill="#315579"/>
<path d="M390.181 380.174L392.591 381.187L393.051 382.888L387.52 388.19L387.721 388.46L390.639 392.434L405.191 400.833V404.161L400.308 406.98H394.543L379.993 398.579L378.427 393.826L377.608 388.272L387.238 380.439L390.181 380.174Z" fill="#4A8AAC"/>
<path d="M413.772 379.194V379.556L411.938 380.616H409.341L407.506 379.556V379.194H413.772Z" fill="#315579"/>
<path d="M411.938 376.637L413.772 377.695V379.194L411.938 380.253H409.341L407.506 379.194V377.695L409.341 376.637H411.938Z" fill="#4A8AAC"/>
<path d="M404.542 380.915V381.278L404.064 381.555H403.387L402.909 381.278V380.915H404.542Z" fill="#315579"/>
<path d="M404.542 380.525V380.915L404.064 381.192H403.387L402.909 380.915V380.524L403.387 380.25H404.064L404.542 380.525Z" fill="#4A8AAC"/>
<path d="M407.114 381.146V381.51L406.636 381.786H405.958L405.48 381.51V381.146H407.114Z" fill="#315579"/>
<path d="M407.114 380.757V381.146L406.636 381.422H405.958L405.48 381.146V380.757L405.958 380.481H406.636L407.114 380.757Z" fill="#4A8AAC"/>
<path d="M406.783 379.623V379.986L406.304 380.261H405.628L405.151 379.986V379.623H406.783Z" fill="#315579"/>
<path d="M406.783 379.233V379.623L406.304 379.898H405.628L405.151 379.623V379.233L405.628 378.957H406.304L406.783 379.233Z" fill="#4A8AAC"/>
<path d="M409.792 381.36V381.722L409.313 381.998H408.637L408.159 381.722V381.36H409.792Z" fill="#315579"/>
<path d="M409.792 380.969V381.36L409.313 381.636H408.637L408.159 381.36V380.969L408.637 380.692H409.313L409.792 380.969Z" fill="#4A8AAC"/>
<path d="M404.874 382.441V382.803L404.395 383.08H403.719L403.241 382.803V382.441H404.874Z" fill="#315579"/>
<path d="M404.874 382.049V382.441L404.395 382.716H403.719L403.241 382.441V382.049L403.719 381.774H404.395L404.874 382.049Z" fill="#4A8AAC"/>
<path d="M407.551 382.653V383.017L407.073 383.293H406.398L405.92 383.017V382.653H407.551Z" fill="#315579"/>
<path d="M407.551 382.262V382.653L407.073 382.93H406.398L405.92 382.653L405.918 382.262L406.398 381.986H407.073L407.551 382.262Z" fill="#4A8AAC"/>
<path d="M405.312 383.946V384.31L404.834 384.584H404.157L403.68 384.31V383.946H405.312Z" fill="#315579"/>
<path d="M405.312 383.556V383.946L404.834 384.223H404.157L403.68 383.946V383.556L404.157 383.28H404.834L405.312 383.556Z" fill="#4A8AAC"/>
<path d="M402.303 382.209V382.572L401.825 382.849H401.149L400.67 382.572V382.209H402.303Z" fill="#315579"/>
<path d="M402.303 381.818V382.209L401.825 382.485H401.149L400.67 382.209V381.818L401.149 381.543H401.825L402.303 381.818Z" fill="#4A8AAC"/>
<path d="M402.706 383.69V384.055L402.228 384.329H401.552L401.074 384.055V383.69H402.706Z" fill="#315579"/>
<path d="M402.706 383.302V383.69L402.228 383.968H401.552L401.074 383.69V383.301L401.552 383.025H402.228L402.706 383.302Z" fill="#4A8AAC"/>
<path d="M403.145 385.197V385.56L402.667 385.836H401.991L401.513 385.56V385.197H403.145Z" fill="#315579"/>
<path d="M403.145 384.807V385.198L402.667 385.474H401.991L401.513 385.198L401.511 384.807L401.991 384.532H402.667L403.145 384.807Z" fill="#4A8AAC"/>
<path d="M400.135 383.459V383.823L399.656 384.1H398.98L398.504 383.823V383.459H400.135Z" fill="#315579"/>
<path d="M400.135 383.069V383.46L399.656 383.737H398.98L398.504 383.46L398.502 383.069L398.98 382.794H399.656L400.135 383.069Z" fill="#4A8AAC"/>
<path d="M400.668 384.866V385.23L400.191 385.507H399.514L399.037 385.23V384.866H400.668Z" fill="#315579"/>
<path d="M400.668 384.477V384.867L400.191 385.144H399.514L399.037 384.867V384.477L399.514 384.201H400.191L400.668 384.477Z" fill="#4A8AAC"/>
<path d="M398.098 384.636V384.998L397.62 385.276H396.943L396.466 384.998V384.636H398.098Z" fill="#315579"/>
<path d="M398.098 384.245V384.636L397.62 384.912H396.943L396.466 384.636L396.465 384.245L396.943 383.97H397.62L398.098 384.245Z" fill="#4A8AAC"/>
<path d="M401.105 386.374V386.736L400.627 387.014H399.954L399.475 386.736V386.374H401.105Z" fill="#315579"/>
<path d="M401.105 385.983V386.373L400.627 386.65H399.954L399.475 386.373V385.983L399.954 385.706H400.627L401.105 385.983Z" fill="#4A8AAC"/>
<path d="M398.689 386.011V386.373L398.211 386.65H397.533L397.054 386.373V386.011H398.689Z" fill="#315579"/>
<path d="M398.689 385.621V386.011L398.211 386.286H397.533L397.054 386.011V385.621L397.533 385.345H398.211L398.689 385.621Z" fill="#4A8AAC"/>
<path d="M396.117 385.78V386.144L395.64 386.419H394.962L394.484 386.144V385.78H396.117Z" fill="#315579"/>
<path d="M396.117 385.39V385.78L395.64 386.055H394.962L394.484 385.78V385.39L394.962 385.115H395.64L396.117 385.39Z" fill="#4A8AAC"/>
<path d="M399.126 387.518V387.881L398.648 388.155H397.972L397.494 387.881V387.518H399.126Z" fill="#315579"/>
<path d="M399.126 387.128V387.518L398.648 387.793H397.972L397.494 387.518L397.493 387.128L397.972 386.851H398.648L399.126 387.128Z" fill="#4A8AAC"/>
<path d="M396.707 387.155V387.518L396.23 387.793H395.553L395.075 387.518V387.155H396.707Z" fill="#315579"/>
<path d="M396.707 386.764V387.155L396.23 387.43H395.553L395.075 387.155V386.764L395.553 386.489H396.23L396.707 386.764Z" fill="#4A8AAC"/>
<path d="M394.136 386.923V387.287L393.658 387.562H392.982L392.505 387.287V386.923H394.136Z" fill="#315579"/>
<path d="M394.136 386.534V386.923L393.658 387.199H392.982L392.505 386.923V386.534L392.982 386.257H393.658L394.136 386.534Z" fill="#4A8AAC"/>
<path d="M397.145 388.661V389.024L396.667 389.299H395.991L395.512 389.024V388.661H397.145Z" fill="#315579"/>
<path d="M397.145 388.27V388.661L396.667 388.937H395.991L395.512 388.661V388.27L395.991 387.996H396.667L397.145 388.27Z" fill="#4A8AAC"/>
<path d="M425.35 387.199V387.561L423.516 388.62H420.919L419.086 387.561V387.199H425.35Z" fill="#315579"/>
<path d="M423.516 384.641L425.35 385.7V387.2L423.516 388.257H420.919L419.086 387.2V385.7L420.919 384.641H423.516Z" fill="#4A8AAC"/>
<path d="M418.208 387.693V388.056L417.731 388.332H417.054L416.576 388.056V387.693H418.208Z" fill="#315579"/>
<path d="M418.208 387.303V387.693L417.731 387.97H417.054L416.576 387.693V387.303L417.054 387.027H417.731L418.208 387.303Z" fill="#4A8AAC"/>
<path d="M418.54 389.217V389.579L418.062 389.856H417.386L416.908 389.579V389.217H418.54Z" fill="#315579"/>
<path d="M418.54 388.826V389.217L418.062 389.494H417.386L416.908 389.217V388.826L417.386 388.55H418.062L418.54 388.826Z" fill="#4A8AAC"/>
<path d="M421.218 389.429V389.792L420.739 390.069H420.064L419.585 389.792V389.429H421.218Z" fill="#315579"/>
<path d="M421.218 389.039V389.429L420.739 389.707H420.064L419.585 389.429V389.039L420.064 388.764H420.739L421.218 389.039Z" fill="#4A8AAC"/>
<path d="M418.978 390.723V391.086L418.499 391.363H417.822L417.344 391.086V390.723H418.978Z" fill="#315579"/>
<path d="M418.978 390.332V390.723L418.499 391.001H417.822L417.344 390.723V390.332L417.822 390.057H418.499L418.978 390.332Z" fill="#4A8AAC"/>
<path d="M415.969 388.985V389.348L415.491 389.625H414.814L414.336 389.348V388.985H415.969Z" fill="#315579"/>
<path d="M415.969 388.595V388.985L415.491 389.263H414.814L414.336 388.985V388.595L414.814 388.32H415.491L415.969 388.595Z" fill="#4A8AAC"/>
<path d="M416.299 390.51V390.873L415.821 391.149H415.144L414.667 390.873V390.51H416.299Z" fill="#315579"/>
<path d="M416.299 390.12V390.511L415.821 390.787H415.144L414.667 390.511V390.12L415.144 389.845H415.821L416.299 390.12Z" fill="#4A8AAC"/>
<path d="M416.738 392.018V392.379L416.258 392.656H415.583L415.105 392.379V392.018H416.738Z" fill="#315579"/>
<path d="M416.738 391.627V392.017L416.258 392.292H415.583L415.105 392.017V391.627L415.583 391.35H416.258L416.738 391.627Z" fill="#4A8AAC"/>
<path d="M413.728 390.28V390.642L413.251 390.92H412.575L412.096 390.642V390.28H413.728Z" fill="#315579"/>
<path d="M413.728 389.889V390.28L413.251 390.555H412.575L412.096 390.28V389.889L412.575 389.613H413.251L413.728 389.889Z" fill="#4A8AAC"/>
<path d="M414.132 391.762V392.126L413.654 392.401H412.979L412.501 392.126V391.762H414.132Z" fill="#315579"/>
<path d="M414.132 391.373V391.762L413.654 392.039H412.979L412.501 391.762V391.373L412.979 391.095H413.654L414.132 391.373Z" fill="#4A8AAC"/>
<path d="M411.562 391.531V391.895L411.084 392.171H410.407L409.929 391.895V391.531H411.562Z" fill="#315579"/>
<path d="M411.562 391.142V391.531L411.084 391.808H410.407L409.929 391.531L409.928 391.142L410.407 390.864H411.084L411.562 391.142Z" fill="#4A8AAC"/>
<path d="M414.57 393.268V393.631L414.093 393.907H413.416L412.938 393.631V393.268H414.57Z" fill="#315579"/>
<path d="M414.57 392.878V393.268L414.093 393.546H413.416L412.938 393.268V392.877L413.416 392.602H414.093L414.57 392.878Z" fill="#4A8AAC"/>
<path d="M412.094 392.938V393.302L411.617 393.579H410.94L410.461 393.302V392.938H412.094Z" fill="#315579"/>
<path d="M412.094 392.549V392.938L411.617 393.215H410.94L410.461 392.938V392.549L410.94 392.271H411.617L412.094 392.549Z" fill="#4A8AAC"/>
<path d="M409.524 392.707V393.07L409.046 393.346H408.369L407.892 393.07V392.707H409.524Z" fill="#315579"/>
<path d="M409.524 392.317V392.707L409.046 392.984H408.369L407.892 392.707V392.317L408.369 392.042H409.046L409.524 392.317Z" fill="#4A8AAC"/>
<path d="M412.533 394.445V394.809L412.055 395.084H411.378L410.9 394.809V394.445H412.533Z" fill="#315579"/>
<path d="M412.533 394.054V394.445L412.055 394.722H411.378L410.9 394.445V394.054L411.378 393.778H412.055L412.533 394.054Z" fill="#4A8AAC"/>
<path d="M410.114 394.08V394.443L409.637 394.718H408.96L408.482 394.443V394.08H410.114Z" fill="#315579"/>
<path d="M410.114 393.689V394.08L409.637 394.356H408.96L408.482 394.08V393.689L408.96 393.413H409.637L410.114 393.689Z" fill="#4A8AAC"/>
<path d="M407.543 393.848V394.213L407.065 394.487H406.389L405.912 394.213V393.848H407.543Z" fill="#315579"/>
<path d="M407.543 393.46V393.848L407.065 394.126H406.389L405.912 393.848V393.46L406.389 393.183H407.065L407.543 393.46Z" fill="#4A8AAC"/>
<path d="M410.552 395.586V395.948L410.074 396.225H409.398L408.919 395.948V395.586H410.552Z" fill="#315579"/>
<path d="M410.552 395.195V395.586L410.074 395.861H409.398L408.919 395.586V395.195L409.398 394.92H410.074L410.552 395.195Z" fill="#4A8AAC"/>
<path d="M427.711 393.136V393.5L425.879 394.559H423.282L421.446 393.5V393.136H427.711Z" fill="#315579"/>
<path d="M425.879 390.578L427.711 391.638V393.136L425.879 394.194H423.282L421.446 393.136V391.638L423.282 390.578H425.879Z" fill="#4A8AAC"/>
<path d="M420.602 393.612V393.976L420.123 394.251H419.447L418.969 393.976V393.612H420.602Z" fill="#315579"/>
<path d="M420.602 393.221V393.612L420.123 393.888H419.447L418.969 393.612V393.221L419.447 392.944H420.123L420.602 393.221Z" fill="#4A8AAC"/>
<path d="M420.934 395.138V395.5L420.454 395.774H419.779L419.3 395.5V395.138H420.934Z" fill="#315579"/>
<path d="M420.934 394.746V395.138L420.454 395.411H419.779L419.3 395.138V394.746L419.779 394.471H420.454L420.934 394.746Z" fill="#4A8AAC"/>
<path d="M423.611 395.35V395.714L423.133 395.988H422.456L421.978 395.714V395.35H423.611Z" fill="#315579"/>
<path d="M423.611 394.96V395.35L423.133 395.626H422.456L421.978 395.35V394.96L422.456 394.682H423.133L423.611 394.96Z" fill="#4A8AAC"/>
<path d="M421.369 396.643V397.005L420.891 397.28H420.217L419.738 397.005V396.643H421.369Z" fill="#315579"/>
<path d="M421.369 396.253V396.643L420.891 396.92H420.217L419.738 396.643V396.253L420.217 395.977H420.891L421.369 396.253Z" fill="#4A8AAC"/>
<path d="M418.362 394.907V395.269L417.885 395.545H417.208L416.73 395.269V394.907H418.362Z" fill="#315579"/>
<path d="M418.362 394.516V394.907L417.885 395.182H417.208L416.73 394.907L416.728 394.516L417.208 394.238H417.885L418.362 394.516Z" fill="#4A8AAC"/>
<path d="M418.693 396.429V396.792L418.215 397.069H417.538L417.06 396.792V396.429H418.693Z" fill="#315579"/>
<path d="M418.693 396.039V396.429L418.215 396.706H417.538L417.06 396.429V396.039L417.538 395.764H418.215L418.693 396.039Z" fill="#4A8AAC"/>
<path d="M419.13 397.936V398.298L418.652 398.576H417.976L417.497 398.298V397.936H419.13Z" fill="#315579"/>
<path d="M419.13 397.544V397.936L418.652 398.213H417.976L417.497 397.936V397.544L417.976 397.27H418.652L419.13 397.544Z" fill="#4A8AAC"/>
<path d="M416.122 396.198V396.561L415.642 396.838H414.968L414.489 396.561V396.198H416.122Z" fill="#315579"/>
<path d="M416.122 395.808V396.198L415.642 396.475H414.968L414.489 396.198V395.807L414.968 395.533H415.642L416.122 395.808Z" fill="#4A8AAC"/>
<path d="M416.526 397.681V398.043L416.048 398.32H415.371L414.893 398.043V397.681H416.526Z" fill="#315579"/>
<path d="M416.526 397.289V397.681L416.048 397.956H415.371L414.893 397.681V397.289L415.371 397.014H416.048L416.526 397.289Z" fill="#4A8AAC"/>
<path d="M413.954 397.451V397.813L413.477 398.089H412.8L412.321 397.813V397.451H413.954Z" fill="#315579"/>
<path d="M413.954 397.058V397.451L413.477 397.725H412.8L412.321 397.451V397.058L412.8 396.784H413.477L413.954 397.058Z" fill="#4A8AAC"/>
<path d="M416.964 399.187V399.55L416.485 399.825H415.809L415.33 399.55V399.187H416.964Z" fill="#315579"/>
<path d="M416.964 398.797V399.187L416.485 399.463H415.809L415.33 399.187V398.797L415.809 398.52H416.485L416.964 398.797Z" fill="#4A8AAC"/>
<path d="M423.293 381.027V381.391L421.46 382.449H418.864L417.029 381.391V381.027H423.293Z" fill="#315579"/>
<path d="M421.46 378.469L423.293 379.529V381.027L421.46 382.086H418.864L417.029 381.027V379.529L418.864 378.469H421.46Z" fill="#4A8AAC"/>
<path d="M411.766 384.054V384.415L411.288 384.691H410.613L410.134 384.415V384.054H411.766Z" fill="#315579"/>
<path d="M411.766 383.663V384.054L411.288 384.328H410.613L410.134 384.054V383.663L410.613 383.387H411.288L411.766 383.663Z" fill="#4A8AAC"/>
<path d="M414.337 384.284V384.646L413.861 384.922H413.182L412.706 384.646V384.284H414.337Z" fill="#315579"/>
<path d="M414.337 383.894V384.284L413.861 384.559H413.182L412.706 384.284V383.894L413.182 383.617H413.861L414.337 383.894Z" fill="#4A8AAC"/>
<path d="M414.006 382.759V383.123L413.527 383.399H412.852L412.375 383.123V382.759H414.006Z" fill="#315579"/>
<path d="M414.006 382.37V382.759L413.527 383.036H412.852L412.375 382.759V382.37L412.852 382.094H413.527L414.006 382.37Z" fill="#4A8AAC"/>
<path d="M416.578 382.991V383.353L416.1 383.63H415.423L414.945 383.353V382.991H416.578Z" fill="#315579"/>
<path d="M416.578 382.6V382.991L416.1 383.268H415.423L414.945 382.991V382.6L415.423 382.324H416.1L416.578 382.6Z" fill="#4A8AAC"/>
<path d="M417.015 384.497V384.86L416.537 385.135H415.861L415.383 384.86V384.497H417.015Z" fill="#315579"/>
<path d="M417.015 384.107V384.497L416.537 384.772H415.861L415.383 384.497V384.107L415.861 383.83H416.537L417.015 384.107Z" fill="#4A8AAC"/>
<path d="M419.256 383.204V383.567L418.778 383.843H418.1L417.622 383.567V383.204H419.256Z" fill="#315579"/>
<path d="M419.256 382.814V383.204L418.778 383.481H418.1L417.622 383.204V382.814L418.1 382.539H418.778L419.256 382.814Z" fill="#4A8AAC"/>
<path d="M416.247 381.466V381.83L415.768 382.107H415.093L414.614 381.83V381.466H416.247Z" fill="#315579"/>
<path d="M416.247 381.078V381.466L415.768 381.743H415.093L414.614 381.466L414.613 381.078L415.093 380.8H415.768L416.247 381.078Z" fill="#4A8AAC"/>
<path d="M412.169 385.535V385.898L411.693 386.175H411.016L410.537 385.898V385.535H412.169Z" fill="#315579"/>
<path d="M412.169 385.145V385.535L411.693 385.811H411.016L410.537 385.535V385.144L411.016 384.869H411.693L412.169 385.145Z" fill="#4A8AAC"/>
<path d="M414.776 385.791V386.153L414.299 386.428H413.622L413.143 386.153V385.791H414.776Z" fill="#315579"/>
<path d="M414.776 385.4V385.791L414.299 386.066H413.622L413.143 385.791V385.4L413.622 385.123H414.299L414.776 385.4Z" fill="#4A8AAC"/>
<path d="M412.608 387.041V387.405L412.13 387.681H411.454L410.975 387.405V387.041H412.608Z" fill="#315579"/>
<path d="M412.608 386.65V387.041L412.13 387.318H411.454L410.975 387.041V386.65L411.454 386.376H412.13L412.608 386.65Z" fill="#4A8AAC"/>
<path d="M409.599 385.303V385.668L409.122 385.943H408.446L407.967 385.668V385.303H409.599Z" fill="#315579"/>
<path d="M409.599 384.914V385.303L409.122 385.581H408.446L407.967 385.303V384.914L408.446 384.638H409.122L409.599 384.914Z" fill="#4A8AAC"/>
<path d="M410.133 386.711V387.075L409.654 387.35H408.978L408.499 387.075V386.711H410.133Z" fill="#315579"/>
<path d="M410.133 386.321V386.711L409.654 386.989H408.978L408.499 386.711V386.32L408.978 386.046H409.654L410.133 386.321Z" fill="#4A8AAC"/>
<path d="M410.57 388.218V388.582L410.091 388.858H409.416L408.937 388.582V388.218H410.57Z" fill="#315579"/>
<path d="M410.57 387.827V388.218L410.091 388.494H409.416L408.937 388.218V387.827L409.416 387.552H410.091L410.57 387.827Z" fill="#4A8AAC"/>
<path d="M407.561 386.48V386.844L407.083 387.12H406.406L405.929 386.844V386.48H407.561Z" fill="#315579"/>
<path d="M407.561 386.089V386.48L407.083 386.759H406.406L405.929 386.48V386.089L406.406 385.815H407.083L407.561 386.089Z" fill="#4A8AAC"/>
<path d="M408.152 387.856V388.218L407.674 388.494H406.997L406.519 388.218V387.856H408.152Z" fill="#315579"/>
<path d="M408.152 387.464V387.856L407.674 388.131H406.997L406.519 387.856V387.464L406.997 387.188H407.674L408.152 387.464Z" fill="#4A8AAC"/>
<path d="M405.582 387.625V387.987L405.104 388.264H404.428L403.949 387.987V387.625H405.582Z" fill="#315579"/>
<path d="M405.582 387.234V387.625L405.104 387.9H404.428L403.949 387.625V387.234L404.428 386.958H405.104L405.582 387.234Z" fill="#4A8AAC"/>
<path d="M408.589 389.362V389.725L408.112 390H407.435L406.958 389.725V389.362H408.589Z" fill="#315579"/>
<path d="M408.589 388.972V389.362L408.112 389.638H407.435L406.958 389.362V388.972L407.435 388.694H408.112L408.589 388.972Z" fill="#4A8AAC"/>
<path d="M406.172 388.998V389.362L405.693 389.638H405.018L404.54 389.362V388.998H406.172Z" fill="#315579"/>
<path d="M406.172 388.609V388.998L405.693 389.274H405.018L404.54 388.998V388.609L405.018 388.332H405.693L406.172 388.609Z" fill="#4A8AAC"/>
<path d="M403.601 388.768V389.131L403.123 389.407H402.446L401.968 389.131V388.768H403.601Z" fill="#315579"/>
<path d="M403.601 388.378V388.768L403.123 389.045H402.446L401.968 388.768V388.378L402.446 388.101H403.123L403.601 388.378Z" fill="#4A8AAC"/>
<path d="M406.61 390.504V390.867L406.131 391.144H405.456L404.977 390.867V390.504H406.61Z" fill="#315579"/>
<path d="M406.61 390.113V390.504L406.131 390.782H405.456L404.977 390.504V390.113L405.456 389.838H406.131L406.61 390.113Z" fill="#4A8AAC"/>
<path d="M404.266 390.096V390.46L403.788 390.737H403.112L402.635 390.46V390.096H404.266Z" fill="#315579"/>
<path d="M404.266 389.708V390.097L403.788 390.374H403.112L402.635 390.097V389.708L403.112 389.431H403.788L404.266 389.708Z" fill="#4A8AAC"/>
<path d="M401.696 389.868V390.231L401.218 390.506H400.541L400.064 390.231V389.868H401.696Z" fill="#315579"/>
<path d="M401.696 389.476V389.868L401.218 390.143H400.541L400.064 389.868V389.476L400.541 389.201H401.218L401.696 389.476Z" fill="#4A8AAC"/>
<path d="M404.705 391.603V391.966L404.227 392.244H403.55L403.073 391.966V391.603H404.705Z" fill="#315579"/>
<path d="M404.705 391.213V391.604L404.227 391.881H403.55L403.073 391.604V391.213L403.55 390.938H404.227L404.705 391.213Z" fill="#4A8AAC"/>
<path d="M403.058 443.602L407.498 441.039L418.732 439.228L444.677 424.249V421.822L442.076 420.321H438.784L442.197 418.35V415.923L439.599 414.422H436.307L440.208 412.17V409.741L437.608 408.241H434.206L430.692 410.27V407.906L428.091 406.407L424.689 406.404L405.837 417.29L409.345 413.929L408.73 411.656L405.949 410.485L403.293 410.725L403.053 410.865L402.484 410.956L392.699 418.913L393.54 424.611L390.638 430.741L385.71 433.586L403.058 443.602Z" fill="#573234"/>
<path d="M402.485 410.956L403.053 410.865L403.293 410.725L402.703 410.78L402.485 410.956Z" fill="#3A2323"/>
<path d="M405.863 413.05L408.73 413.759V414.254L403.401 419.362V419.826L394.108 425.19L393.287 419.639V419.142L405.863 413.05Z" fill="#315579"/>
<path d="M394.108 424.696L393.287 419.142L402.919 411.31L405.863 411.046L408.271 412.059L408.73 413.759L403.199 419.061L403.401 419.331L394.108 424.696Z" fill="#4A8AAC"/>
<path d="M405.863 411.046L408.73 411.753V413.759L403.199 419.061L403.401 419.331L424.836 406.955H427.944L430.143 408.014V410.018L413.279 419.756V420.107L413.71 420.356H414.319L434.352 408.789H437.461L439.661 409.849V411.853L419.626 423.42V423.773L420.057 424.021H420.667L436.343 414.97L439.451 414.972L441.649 416.031V418.034L425.973 427.084V427.437L426.404 427.686H427.013L438.821 420.869H441.929L444.128 421.93V423.933L418.458 438.754L407.312 440.515L391.058 431.13L394.108 424.696L393.287 419.142V417.139L405.863 411.046Z" fill="#D2D2D0"/>
<path d="M405.863 409.04L408.271 410.054L408.73 411.753L403.199 417.055L403.401 417.325L424.836 404.948L427.944 404.951L430.143 406.219V408.014L413.279 417.751V418.103L413.71 418.352H414.319L434.352 406.785H437.461L439.661 408.054V409.849L419.626 421.415V421.767L420.057 422.016H420.667L436.343 412.967H439.451L441.649 414.236V416.031L425.973 425.08V425.433L426.404 425.682H427.013L438.821 418.866H441.929L444.128 420.134V421.93L418.458 436.75L407.312 438.51L399.795 435.265L391.058 429.126L394.108 422.69L393.287 417.139L402.919 409.306L405.863 409.04Z" fill="white"/>
<path d="M403.058 442.97L401.668 440.161L407.312 438.51V440.515L403.058 442.97Z" fill="#3E7494"/>
<path d="M403.058 442.97L386.807 433.587V431.582L395.075 435.046L403.058 440.965V442.97Z" fill="#315579"/>
<path d="M403.058 440.965L386.807 431.582L391.059 429.126L407.312 438.51L403.058 440.965Z" fill="#4A8AAC"/>
</g>
</g>
<g clip-path="url(#clip5_4001_64836)">
<path d="M520.249 779.987V751.645L506.078 727.099L481.536 712.93H453.189L428.646 727.099L414.471 751.64V779.987L428.646 804.534L453.189 818.704H481.536L506.078 804.534L520.249 779.987Z" fill="#EEEFF2"/>
<path d="M517.585 752.357L504.128 729.046L480.82 715.59H453.898L430.591 729.046L417.133 752.354V779.272L430.591 802.585L453.898 816.041H480.82L504.128 802.585L517.585 779.272V752.357ZM522.905 750.932V780.702L508.025 806.483L482.247 821.363H452.472L426.699 806.483L411.813 780.702V750.929L426.699 725.153L452.472 710.272H482.247L508.025 725.153L522.905 750.932Z" fill="#CFD6F2"/>
<path d="M486.279 793.454H498.29L506.785 788.548V781.616L506.114 781.229V784.38L498.018 789.055V792.603H486.562L484.275 791.282V792.296L486.279 793.454Z" fill="#573234"/>
<path d="M506.114 780.855V787.928L498.018 792.603L496.747 789.581L499.772 782.327L506.114 780.855Z" fill="#F8EFCF"/>
<path d="M489.113 788.774L486.563 792.603L451.241 772.209V768.661L455.446 769.523L489.113 788.774Z" fill="#D6BA84"/>
<path d="M486.563 789.055L492.92 787.791L498.018 789.055V792.603H486.563V789.055Z" fill="#EFCC95"/>
<path d="M487.768 742.036H486.52V738.44H487.768V742.036Z" fill="#4D3D39"/>
<path d="M487.768 748.238H486.52V744.641H487.768V748.238Z" fill="#4D3D39"/>
<path d="M506.114 777.766V784.379L498.018 789.055H486.563L451.241 768.661V762.045L459.338 757.371H470.793L506.114 777.766Z" fill="#C39749"/>
<path d="M486.404 743.196V732.809L470.757 723.63H461.219L454.482 727.524V734.645L474.451 751.159L484.187 752.171L486.404 746.664V743.196Z" fill="#9F988F"/>
<path d="M485.562 748.756L485.569 748.748L485.574 748.725L485.562 748.756ZM486.404 732.809V732.562L473.52 725.251L486.404 732.809Z" fill="#64393C"/>
<path d="M483.74 751.159L485.562 748.756L485.574 748.725L486.404 745.578V732.809L473.52 725.251L471.548 724.132H470.547L470.444 735.381L469.478 741.536L470.175 741.942L478.677 742.12L479.692 742.561L480.788 747.582L483.74 751.159Z" fill="#7B7872"/>
<path d="M506.114 777.766L502.795 766.585L490.906 759.092L487.278 753.496L486.404 749.621L483.74 751.159L470.175 749.553L454.482 741.427L451.503 757.371L451.241 762.045L478.952 774.268L506.114 777.766Z" fill="#C39749"/>
<path d="M486.943 738.15V743.733L486.404 749.621L485.599 750.762L483.74 751.159L485.531 746.644L485.852 743.593L485.866 738.15L486.404 737.597L486.943 738.15Z" fill="#C39749"/>
<path d="M453.944 733.264L454.482 741.427L455.555 744.378L467.967 751.835L478.677 753.583L483.74 751.159L480.788 747.582L479.692 742.561L478.677 742.119L470.175 741.942L454.482 732.809L453.944 733.264Z" fill="#C39749"/>
<path d="M486.563 792.603V789.055L483.082 787.045L484.275 791.061V791.282L486.563 792.603Z" fill="#AA9469"/>
<path d="M486.563 789.055L487.142 781.957L484.155 776.091L481.918 774.651L478.952 774.267L466.815 768.914L469.063 772.384L480.952 779.88L483.082 787.044L486.563 789.055Z" fill="#99783D"/>
<path d="M481.918 774.651L472.1 768.331L469.014 763.136L471.237 752.368L467.967 751.835L464.565 749.791V756.491V759.959L463.017 763.807L464.565 762.916L465.436 766.79L466.815 768.914L478.952 774.267L481.918 774.651ZM465.926 757.936V761.532H464.674V757.936H465.926ZM465.926 751.733V755.332H464.674V751.733H465.926Z" fill="#99783D"/>
<path d="M471.237 752.368L471.367 751.737L470.052 742.562L466.682 739.91L456.069 733.735L453.944 733.264L454.394 740.087L464.565 745.856V746.106V749.791L467.967 751.835L471.237 752.368Z" fill="#99783D"/>
<path d="M476.639 753.26L482.336 748.585L485.478 744.874L487.941 740.051L487.835 739.543L487.409 739.338L486.975 739.58L484.541 744.344L481.548 747.851L475.957 752.429L476.639 753.26Z" fill="#FAEF5B"/>
<path d="M476.91 754.087L484.366 751.324L487.488 747.82V747.328L487.15 747.026L486.686 747.107L483.742 750.407L476.535 753.079L476.91 754.087Z" fill="#FAEF5B"/>
<path d="M476.496 747.424L483.144 747.422L487.046 746.664L487.429 746.366L487.446 745.92L487.078 745.578L483.051 746.349H476.496V747.424Z" fill="#FAEF5B"/>
<path d="M468.458 774.107V776.903L468.688 777.038L468.771 774.188L468.458 774.107Z" fill="#392E2B"/>
<path d="M468.688 774.239V777.038H469.014L469.243 774.107L468.688 774.239Z" fill="#4D3D39"/>
<path d="M469.014 774.239V777.038L469.243 776.903V774.107L469.014 774.239Z" fill="#614F49"/>
<path d="M469.243 773.916V774.107L469.014 774.239H468.688L468.458 774.107V773.916L468.688 773.784H469.014L469.243 773.916Z" fill="#7D6563"/>
<path d="M469.399 774.002L469.809 770.126L471.787 762.77L472.518 756.743L474.777 753.421L473.885 752.817L471.48 756.355L470.725 762.604L468.748 769.971L468.32 773.993L468.65 774.399L469.072 774.402L469.399 774.002Z" fill="#FAEF5B"/>
<path d="M475.668 744.91L476.719 745.963V746.836L475.668 747.075H474.181L473.125 746.836V745.963L474.181 744.91H475.668Z" fill="#4D3D39"/>
<path d="M475.668 745.782L476.719 746.835V748.327L475.668 749.38H474.181L473.125 748.327V746.835L474.181 745.782H475.668Z" fill="#7D6563"/>
<path d="M476.161 750.863L477.216 751.918V752.79L476.161 753.031H474.67L473.617 752.79V751.918L474.67 750.863H476.161Z" fill="#4D3D39"/>
<path d="M476.161 751.737L477.216 752.79V754.279L476.161 755.335H474.67L473.617 754.279V752.79L474.67 751.737H476.161Z" fill="#7D6563"/>
<path d="M470.052 742.561H479.692L479.376 741.487H470.339L455.021 732.641V727.78L461.341 724.132H470.547L485.866 732.976V738.15H486.943V732.357L470.836 723.058L461.057 723.056L453.944 727.161V733.264L470.052 742.561Z" fill="#EFCC95"/>
<path d="M464.435 806.749H476.447L484.943 801.846V794.912L484.275 794.526V797.673L476.174 802.35V805.899H464.718L429.394 785.503V781.956V778.623L428.564 779.101V786.038L464.435 806.749Z" fill="#573234"/>
<path d="M484.275 794.152V801.222L476.174 805.898L474.908 802.875L477.925 795.623L484.275 794.152Z" fill="#F8EFCF"/>
<path d="M467.273 802.072L464.718 805.898L429.394 785.503V781.956L433.6 782.816L467.273 802.072Z" fill="#D6BA84"/>
<path d="M464.718 802.35L471.076 801.085L476.174 802.35V805.898H464.718V802.35Z" fill="#EFCC95"/>
<path d="M465.927 755.332H464.674V751.734H465.927V755.332Z" fill="#4D3D39"/>
<path d="M465.927 761.533H464.674V757.936H465.927V761.533Z" fill="#4D3D39"/>
<path d="M484.275 791.061V797.673L476.174 802.35H464.718L429.394 781.956V775.341L437.495 770.665L448.952 770.666L484.275 791.061Z" fill="#C39749"/>
<path d="M464.565 756.492V746.107L448.912 736.925H439.38L432.642 740.82V747.939L452.609 764.454L462.348 765.469L464.565 759.959V756.492Z" fill="#9F988F"/>
<path d="M454.398 740.141L454.394 740.087L451.672 738.543L454.398 740.141Z" fill="#64393C"/>
<path d="M464.565 746.106V745.856L454.394 740.087L454.398 740.141L464.565 746.106Z" fill="#785E32"/>
<path d="M461.894 764.453L463.725 762.041L464.565 758.876V746.106L454.398 740.141L451.672 738.543L449.704 737.427H448.707L448.602 748.677L447.635 754.831L448.333 755.236L456.837 755.415L457.849 755.858L458.944 760.881L461.894 764.453Z" fill="#7B7872"/>
<path d="M484.275 791.061L480.952 779.88L469.063 772.385L465.436 766.79L464.565 762.916L461.894 764.453L448.332 762.849L432.642 754.722L429.661 770.665L429.394 775.341L457.107 787.564L484.275 791.061Z" fill="#C39749"/>
<path d="M465.101 751.445V757.028L464.565 762.916L463.752 764.057L461.894 764.453L463.688 759.938L464.009 756.888L464.026 751.445L464.565 750.894L465.101 751.445Z" fill="#C39749"/>
<path d="M432.103 746.558L432.642 754.722L433.716 757.673L446.122 765.13L456.837 766.878L461.894 764.453L458.944 760.881L457.849 755.858L456.837 755.415L448.333 755.237L432.642 746.106L432.103 746.558Z" fill="#C39749"/>
<path d="M464.718 805.898V802.35L429.394 781.956V785.503L464.718 805.898Z" fill="#AA9469"/>
<path d="M464.718 802.35L465.3 795.252L462.311 789.384L460.077 787.946L457.107 787.564L429.394 775.341V781.956L464.718 802.35Z" fill="#99783D"/>
<path d="M460.077 787.946L450.257 781.626L447.17 776.432L449.394 765.664L446.122 765.13L433.716 757.673L432.642 754.722L429.661 770.665L429.394 775.341L457.107 787.564L460.077 787.946Z" fill="#99783D"/>
<path d="M444.844 753.207L444.843 753.206L434.227 747.026H434.22L444.844 753.207Z" fill="#7B7872"/>
<path d="M449.394 765.664L449.525 765.032L448.208 755.858L444.844 753.207L434.22 747.026L432.103 746.558L432.642 754.722L433.716 757.673L446.122 765.13L449.394 765.664Z" fill="#99783D"/>
<path d="M454.795 766.555L460.495 761.88L463.632 758.17L466.1 753.347L465.991 752.838L465.571 752.634L465.133 752.875L462.699 757.64L459.709 761.146L454.114 765.722L454.795 766.555Z" fill="#FAEF5B"/>
<path d="M455.066 767.384L462.525 764.615L465.646 761.117V760.622L465.309 760.322L464.843 760.402L461.898 763.703L454.691 766.374L455.066 767.384Z" fill="#FAEF5B"/>
<path d="M454.651 760.719L461.299 760.716L465.205 759.959L465.587 759.661L465.602 759.214L465.238 758.876L461.208 759.644H454.651V760.719Z" fill="#FAEF5B"/>
<path d="M446.619 787.399V790.2L446.849 790.333L446.928 787.483L446.619 787.399Z" fill="#392E2B"/>
<path d="M446.848 787.534V790.333H447.17L447.399 787.399L446.848 787.534Z" fill="#4D3D39"/>
<path d="M447.17 787.534V790.333L447.399 790.2V787.399L447.17 787.534Z" fill="#614F49"/>
<path d="M447.399 787.214V787.399L447.17 787.534H446.848L446.619 787.399V787.214L446.848 787.078H447.17L447.399 787.214Z" fill="#7D6563"/>
<path d="M447.556 787.296L447.968 783.423L449.945 776.065L450.674 770.038L452.933 766.716L452.047 766.111L449.636 769.649L448.882 775.899L446.903 783.267L446.476 787.287L446.806 787.694L447.226 787.698L447.556 787.296Z" fill="#FAEF5B"/>
<path d="M453.826 758.203L454.88 759.256V760.132L453.826 760.368H452.336L451.28 760.132V759.256L452.336 758.203H453.826Z" fill="#4D3D39"/>
<path d="M453.826 759.079L454.88 760.132V761.621L453.826 762.674H452.336L451.28 761.621V760.132L452.336 759.079H453.826Z" fill="#7D6563"/>
<path d="M454.317 764.158L455.372 765.215V766.084L454.317 766.327H452.828L451.778 766.084V765.215L452.828 764.158H454.317Z" fill="#4D3D39"/>
<path d="M454.317 765.032L455.372 766.084V767.577L454.317 768.631H452.828L451.778 767.577V766.084L452.828 765.032H454.317Z" fill="#7D6563"/>
<path d="M448.208 755.857H457.849L457.531 754.783H448.495L433.176 745.939V741.076L439.498 737.427H448.707L464.026 746.274V751.445H465.101V745.654L448.994 736.354H439.211L432.103 740.455V746.557L448.208 755.857Z" fill="#EFCC95"/>
</g>
</g>
<defs>
<linearGradient id="paint0_linear_4001_64836" x1="322.115" y1="274.051" x2="322.115" y2="1155.23" gradientUnits="userSpaceOnUse">
<stop stop-color="#FAFAFB"/>
<stop offset="1" stop-color="#E7E8E9"/>
</linearGradient>
<clipPath id="clip0_4001_64836">
<rect width="622" height="890.088" fill="white" transform="matrix(-1 0 0 1 622 0)"/>
</clipPath>
<clipPath id="clip1_4001_64836">
<rect width="618.461" height="890.088" fill="white" transform="matrix(-1 0 0 1 618.018 0)"/>
</clipPath>
<clipPath id="clip2_4001_64836">
<rect width="94.1917" height="94.1917" fill="white" transform="matrix(-1 0 0 1 577.706 227.673)"/>
</clipPath>
<clipPath id="clip3_4001_64836">
<rect width="94.1917" height="94.1917" fill="white" transform="matrix(-1 0 0 1 457.967 72.5181)"/>
</clipPath>
<clipPath id="clip4_4001_64836">
<rect width="94.1891" height="94.9873" fill="white" transform="matrix(-1 0 0 1 454.594 362.59)"/>
</clipPath>
<clipPath id="clip5_4001_64836">
<rect width="111.482" height="112.427" fill="white" transform="matrix(-1 0 0 1 522.905 709.593)"/>
</clipPath>
</defs>
</svg>
