<svg width="804" height="450" viewBox="0 0 804 450" fill="none" xmlns="http://www.w3.org/2000/svg">
<g clip-path="url(#clip0_4_4)">
<path d="M545.087 23.1785C540.501 22.8917 536.518 26.3641 536.161 30.9621C535.786 35.724 539.228 39.699 543.995 40.0187C548.592 40.3247 552.607 36.8796 552.979 32.3007C553.356 27.7 549.69 23.4627 545.087 23.1785Z" fill="#FDF2EC"/>
<path d="M549.196 63.681C548.89 68.0003 552.043 71.5929 556.375 71.8689C560.549 72.1311 564.184 69.0167 564.545 64.8695C564.911 60.6922 561.639 56.8373 557.443 56.504C553.214 56.1652 549.499 59.3999 549.196 63.681Z" fill="#FDF2EC"/>
<path d="M558.728 41.1797C558.401 45.8242 561.883 49.7993 566.513 50.0615C571.015 50.3156 574.94 46.8624 575.265 42.36C575.596 37.7401 572.099 33.7787 567.447 33.5055C562.883 33.2351 559.045 36.6118 558.728 41.1797Z" fill="#FDF2EC"/>
<path d="M577.786 10.222C572.938 9.85589 568.641 13.555 568.286 18.4044C567.928 23.2728 571.594 27.5184 576.47 27.8817C581.356 28.2451 585.579 24.6061 585.943 19.7212C586.306 14.8418 582.654 10.5881 577.786 10.222Z" fill="#FDF2EC"/>
<path d="M526.588 53.6347C526.337 57.8993 529.554 61.5684 533.832 61.8881C538.093 62.2105 541.822 59.0413 542.199 54.7766C542.584 50.4081 539.339 46.5888 534.977 46.2746C530.62 45.9577 526.847 49.2689 526.588 53.6347Z" fill="#FDF2EC"/>
<path d="M523.762 83.7277C527.739 84.0091 531.176 80.9465 531.408 76.914C531.635 72.9772 528.723 69.6824 524.77 69.4037C520.757 69.1223 517.253 72.1931 517.07 76.1545C516.892 80.0203 519.93 83.4572 523.762 83.7277Z" fill="#FDF2EC"/>
<path d="M571.865 73.6195C571.589 77.8788 574.689 81.3402 578.978 81.5588C583.08 81.7692 586.585 78.6492 586.836 74.5676C587.082 70.516 583.963 66.9179 579.92 66.5873C575.744 66.2458 572.138 69.3931 571.865 73.6195Z" fill="#FDF2EC"/>
<path d="M526.453 137.017C529.401 137.175 531.949 134.968 532.2 132.045C532.454 129.086 530.086 126.316 527.12 126.102C524.101 125.881 521.49 128.192 521.293 131.252C521.097 134.348 523.336 136.847 526.453 137.017Z" fill="#FDF2EC"/>
<path d="M522.608 12.9766C517.94 12.6898 513.848 16.3042 513.556 20.9678C513.264 25.6669 516.815 29.6693 521.551 29.9753C526.307 30.2785 530.248 26.7952 530.552 22.0251C530.852 17.3015 527.306 13.2635 522.608 12.9766Z" fill="#FDF2EC"/>
<path d="M472.11 55.7242C471.812 59.7021 474.85 63.2428 478.824 63.5515C482.82 63.863 486.295 60.8632 486.604 56.8307C486.918 52.7627 483.998 49.3559 479.93 49.0527C475.896 48.7521 472.408 51.7246 472.11 55.7242Z" fill="#FDF2EC"/>
<path d="M541.446 218.329C541.132 218.283 540.779 218.498 540.176 218.684C540.632 219.176 540.864 219.629 541.126 219.648C541.386 219.667 541.752 219.288 541.916 218.998C541.979 218.886 541.645 218.359 541.446 218.329Z" fill="#FDF2EC"/>
<path d="M539.414 159.915C537.114 159.707 535.057 161.464 534.861 163.805C534.658 166.215 536.295 168.152 538.693 168.351C541.05 168.548 543.102 166.84 543.296 164.526C543.49 162.251 541.695 160.12 539.414 159.915Z" fill="#FDF2EC"/>
<path d="M621.65 149.112C621.481 151.942 623.538 154.253 626.381 154.42C629.19 154.587 631.56 152.491 631.722 149.699C631.88 146.951 629.711 144.511 626.963 144.35C624.174 144.189 621.822 146.298 621.65 149.112Z" fill="#FDF2EC"/>
<path d="M582.115 123.365C578.892 123.16 576.136 125.572 575.934 128.779C575.731 131.97 578.173 134.749 581.367 134.962C584.571 135.175 587.313 132.757 587.526 129.528C587.742 126.291 585.355 123.572 582.115 123.365Z" fill="#FDF2EC"/>
<path d="M497.446 34.367C497.732 30.0367 494.452 26.2774 490.1 25.9496C485.708 25.6163 481.988 28.7882 481.633 33.1649C481.278 37.5279 484.443 41.3336 488.776 41.7544C493.108 42.1778 497.156 38.7245 497.446 34.367Z" fill="#FDF2EC"/>
<path d="M597.514 52.2039C597.82 47.7698 594.485 43.9067 590.065 43.5734C585.533 43.2292 581.592 46.6934 581.362 51.2149C581.136 55.6599 584.512 59.441 588.956 59.7197C593.387 59.9983 597.208 56.6407 597.514 52.2039Z" fill="#FDF2EC"/>
<path d="M519.815 44.6077C520.171 40.2146 516.988 36.4526 512.615 36.1002C508.247 35.7478 504.429 38.9551 504.052 43.299C503.68 47.5583 507.015 51.4979 511.304 51.8667C515.62 52.2355 519.46 48.9598 519.815 44.6077Z" fill="#FDF2EC"/>
<path d="M543.104 109.648C543.385 106.157 540.828 103.121 537.37 102.84C533.915 102.561 530.853 105.154 530.558 108.607C530.265 112.066 532.844 115.099 536.327 115.388C539.85 115.683 542.82 113.167 543.104 109.648Z" fill="#FDF2EC"/>
<path d="M501.239 73.6594C505.17 73.99 508.753 70.9574 509.092 67.0151C509.434 63.0455 506.453 59.5512 502.443 59.2179C498.376 58.8791 494.975 61.7587 494.653 65.8103C494.331 69.8401 497.256 73.3261 501.239 73.6594Z" fill="#FDF2EC"/>
<path d="M508.165 12.0077C508.509 7.32778 504.955 3.19975 500.279 2.84732C495.575 2.48943 491.51 6.0055 491.158 10.7346C490.803 15.4938 494.25 19.5017 499.008 19.8569C503.739 20.2093 507.818 16.7123 508.165 12.0077Z" fill="#FDF2EC"/>
<path d="M580.455 183.964C580.346 185.824 581.837 187.477 583.733 187.595C585.678 187.715 587.235 186.335 587.355 184.379C587.469 182.486 586 180.8 584.145 180.696C582.31 180.593 580.564 182.142 580.455 183.964Z" fill="#FDF2EC"/>
<path d="M668.935 36.5651C668.613 41.1276 671.968 44.9579 676.548 45.2529C681.072 45.5453 685.024 42.051 685.235 37.5759C685.445 33.1774 682.047 29.3033 677.682 28.9536C673.199 28.5985 669.255 32.0299 668.935 36.5651Z" fill="#FDF2EC"/>
<path d="M687.928 6.1233C683.145 5.71077 678.963 9.27059 678.613 14.0489C678.272 18.737 681.741 22.8214 686.422 23.2421C691.175 23.6711 695.398 20.0757 695.751 15.3029C696.098 10.6284 692.599 6.52218 687.928 6.1233Z" fill="#FDF2EC"/>
<path d="M655.803 3.89037C655.434 8.92002 659.054 13.1164 664.083 13.4853C669.065 13.8514 673.378 10.1522 673.736 5.20723C674.091 0.297785 670.31 -4.0844 665.402 -4.45049C660.455 -4.81659 656.169 -1.09283 655.803 3.89037Z" fill="#FDF2EC"/>
<path d="M691.754 46.8218C691.522 51.081 694.764 54.6818 699.072 54.9441C703.377 55.2091 706.933 52.029 707.187 47.6905C707.436 43.4149 704.171 39.7322 699.935 39.5109C695.717 39.2896 691.983 42.6254 691.754 46.8218Z" fill="#FDF2EC"/>
<path d="M717.717 25.4263C718.056 20.9621 714.803 17.1127 710.361 16.722C705.813 16.3231 701.82 19.6808 701.476 24.1887C701.137 28.6582 704.666 32.7044 709.124 32.9639C713.555 33.2235 717.381 29.8658 717.717 25.4263Z" fill="#FDF2EC"/>
<path d="M659.282 59.1044C659.009 63.2626 662.112 66.9043 666.248 67.2759C670.413 67.6502 674.268 64.3909 674.615 60.2C674.962 55.9872 671.733 52.2607 667.466 51.9493C663.158 51.6378 659.564 54.7796 659.282 59.1044Z" fill="#FDF2EC"/>
<path d="M685.904 92.78C686.237 89.007 683.475 85.7067 679.755 85.4335C676.078 85.163 672.718 88.1109 672.522 91.78C672.325 95.4218 675.089 98.5445 678.755 98.8204C682.473 99.0963 685.576 96.4764 685.904 92.78Z" fill="#FDF2EC"/>
<path d="M696.555 70.2549C696.863 66.1951 693.957 62.8156 689.898 62.5205C685.869 62.2255 682.4 65.1897 682.105 69.173C681.815 73.1125 684.878 76.6724 688.816 76.9729C692.796 77.2734 696.249 74.2764 696.555 70.2549Z" fill="#FDF2EC"/>
<path d="M663.961 82.4646C664.177 78.5933 661.137 75.1318 657.288 74.8668C653.393 74.5991 649.989 77.5606 649.686 81.481C649.383 85.4261 652.251 88.8083 656.179 89.1362C660.203 89.4722 663.743 86.4397 663.961 82.4646Z" fill="#FDF2EC"/>
<path d="M675.183 115.196C675.497 111.811 673.006 108.825 669.627 108.541C666.243 108.254 663.271 110.781 663.017 114.158C662.766 117.532 665.347 120.499 668.718 120.714C672.006 120.925 674.877 118.474 675.183 115.196Z" fill="#FDF2EC"/>
<path d="M609.021 84.7674C609.318 80.7841 606.322 77.3363 602.295 77.033C598.236 76.7271 594.863 79.6394 594.571 83.6992C594.278 87.7262 597.248 91.1959 601.23 91.4855C605.166 91.7751 608.726 88.7043 609.021 84.7674Z" fill="#FDF2EC"/>
<path d="M645.946 110.954C649.658 111.35 652.818 108.771 653.149 105.077C653.474 101.4 650.789 98.2141 647.137 97.9491C643.621 97.6923 640.461 100.372 640.141 103.883C639.814 107.435 642.395 110.577 645.946 110.954Z" fill="#FDF2EC"/>
<path d="M598.468 107.212C598.752 103.556 595.99 100.349 592.349 100.109C588.683 99.8654 585.52 102.649 585.305 106.31C585.094 109.867 587.771 112.963 591.322 113.269C594.982 113.583 598.184 110.87 598.468 107.212Z" fill="#FDF2EC"/>
<path d="M559.028 125.153C562.319 125.284 565.182 122.751 565.436 119.484C565.695 116.104 563.122 113.151 559.716 112.919C556.315 112.689 553.406 115.26 553.21 118.675C553.013 122.068 555.662 125.016 559.028 125.153Z" fill="#FDF2EC"/>
<path d="M701.272 108.437C704.667 108.669 707.631 106.142 707.899 102.784C708.166 99.3938 705.386 96.2302 702.004 96.0799C698.625 95.9297 695.768 98.5251 695.552 101.929C695.336 105.35 697.844 108.199 701.272 108.437Z" fill="#FDF2EC"/>
<path d="M576.24 97.096C576.535 93.2821 573.607 89.9462 569.783 89.7468C566.043 89.5501 562.877 92.3941 562.642 96.1561C562.41 99.9126 565.215 103.106 568.969 103.358C572.727 103.609 575.95 100.833 576.24 97.096Z" fill="#FDF2EC"/>
<path d="M636.444 48.9183C636.151 53.4043 639.462 57.1855 643.947 57.486C648.4 57.7838 652.235 54.4315 652.53 49.9811C652.825 45.5443 649.451 41.6949 645.013 41.3971C640.571 41.0993 636.733 44.4652 636.444 48.9183Z" fill="#FDF2EC"/>
<path d="M619.721 62.3135C620.022 57.9668 616.736 54.2239 612.379 53.948C608.041 53.672 604.285 57.0161 604.062 61.3545C603.84 65.6028 607.069 69.2828 611.3 69.6025C615.643 69.9331 619.421 66.6628 619.721 62.3135Z" fill="#FDF2EC"/>
<path d="M641.864 72.4151C642.139 68.328 639.083 64.7982 634.977 64.4622C630.708 64.1152 627.19 67.1396 626.897 71.4125C626.613 75.5269 629.643 79.0758 633.726 79.4146C637.859 79.7588 641.585 76.5541 641.864 72.4151Z" fill="#FDF2EC"/>
<path d="M630.366 39.9799C630.73 35.2863 627.143 31.1528 622.497 30.9124C617.938 30.6747 613.887 34.2672 613.617 38.7833C613.343 43.3731 616.829 47.34 621.426 47.6733C626.053 48.0066 630.009 44.6025 630.366 39.9799Z" fill="#FDF2EC"/>
<path d="M553.73 86.9465C553.902 83.1025 550.971 79.846 547.134 79.622C543.331 79.3979 539.982 82.3239 539.693 86.1241C539.392 90.05 542.356 93.4268 546.314 93.6645C550.297 93.9049 553.553 90.9543 553.73 86.9465Z" fill="#FDF2EC"/>
<path d="M337.147 69.52C335.071 69.4162 333.271 71.0308 333.187 73.0716C333.102 75.107 334.76 76.932 336.787 77.0331C338.844 77.1342 340.584 75.5305 340.693 73.4323C340.808 71.2958 339.294 69.6293 337.147 69.52Z" fill="#FDF2EC"/>
<path d="M472.139 129.025C469.604 128.784 467.195 130.779 466.941 133.325C466.682 135.904 468.627 138.223 471.246 138.464C473.926 138.71 476.136 136.882 476.376 134.215C476.616 131.574 474.737 129.273 472.139 129.025Z" fill="#FDF2EC"/>
<path d="M482.349 105.653C479.11 105.366 476.291 107.737 476.075 110.928C475.862 114.081 478.402 116.944 481.546 117.092C484.657 117.239 487.291 114.873 487.515 111.734C487.744 108.554 485.515 105.931 482.349 105.653Z" fill="#FDF2EC"/>
<path d="M441.499 200.508C441.168 200.551 440.674 200.764 440.611 201.005C440.54 201.267 440.884 201.639 441.166 202.196C441.553 201.726 441.887 201.483 441.966 201.171C442.015 200.991 441.638 200.491 441.499 200.508Z" fill="#FDF2EC"/>
<path d="M475.58 188.985C475.733 188.135 474.878 187.163 474.015 187.097C473.121 187.032 472.266 187.824 472.228 188.752C472.187 189.739 472.906 190.487 473.9 190.468C474.87 190.449 475.419 189.881 475.58 188.985Z" fill="#FDF2EC"/>
<path d="M304.481 83.9064C303.831 84.0539 303.279 84.6548 302.946 84.8788C302.763 86.4549 303.29 87.1624 304.284 87.2279C305.189 87.2853 306.082 86.5232 306.123 85.6573C306.164 84.7996 305.29 83.7234 304.481 83.9064Z" fill="#FDF2EC"/>
<path d="M338.871 -6.20226C338.724 -5.77333 338.609 -5.32804 338.56 -4.86086C338.21 -1.50867 340.739 1.5348 344.127 1.83259C345.178 1.92548 346.172 1.72336 347.074 1.33814C345.077 -0.574272 343.799 -3.23529 343.7 -6.20226H338.871Z" fill="#FDF2EC"/>
<path d="M487.424 166.68C487.596 164.787 486.195 163.063 484.34 162.883C482.532 162.705 480.726 164.202 480.543 166.027C480.358 167.874 481.8 169.59 483.687 169.767C485.641 169.948 487.244 168.623 487.424 166.68Z" fill="#FDF2EC"/>
<path d="M439.321 142.5C437.338 142.388 435.631 143.912 435.521 145.898C435.409 147.887 436.939 149.608 438.917 149.718C440.892 149.827 442.623 148.278 442.733 146.3C442.842 144.314 441.318 142.614 439.321 142.5Z" fill="#FDF2EC"/>
<path d="M329.038 41.0002C329.224 38.5386 327.448 36.4732 324.987 36.2874C322.559 36.1044 320.404 37.9321 320.226 40.3336C320.049 42.6886 321.964 44.9179 324.324 45.1009C326.722 45.2867 328.855 43.4317 329.038 41.0002Z" fill="#FDF2EC"/>
<path d="M454.041 124.102C454.289 121.435 452.257 119.034 449.586 118.842C446.898 118.648 444.606 120.708 444.475 123.435C444.346 126.08 446.267 128.232 448.916 128.415C451.53 128.596 453.798 126.686 454.041 124.102Z" fill="#FDF2EC"/>
<path d="M696.951 179.769C697.074 178.075 695.907 176.734 694.214 176.616C692.558 176.504 691.116 177.734 691.01 179.351C690.906 180.908 692.242 182.446 693.799 182.56C695.41 182.678 696.831 181.418 696.951 179.769Z" fill="#FDF2EC"/>
<path d="M531.752 186.711C531.804 185.162 530.608 183.864 529.053 183.782C527.499 183.698 526.172 184.867 526.062 186.416C525.95 187.964 527.095 189.317 528.635 189.459C530.269 189.612 531.7 188.35 531.752 186.711Z" fill="#FDF2EC"/>
<path d="M673.102 224.791C673.088 224.999 673.536 225.452 673.637 225.414C673.965 225.291 674.399 225.037 674.465 224.756C674.519 224.532 674.093 224.193 673.716 223.688C673.413 224.196 673.124 224.485 673.102 224.791Z" fill="#FDF2EC"/>
<path d="M624.789 87.4064C621.019 87.0895 617.643 89.9826 617.34 93.7938C617.031 97.6705 619.798 100.93 623.661 101.239C627.488 101.545 630.85 98.7169 631.17 94.9222C631.484 91.2012 628.528 87.7206 624.789 87.4064Z" fill="#FDF2EC"/>
<path d="M726.987 164.067C725.143 163.845 723.504 165.14 723.343 166.948C723.188 168.694 724.668 170.396 726.416 170.483C728.126 170.568 729.612 169.254 729.768 167.522C729.926 165.744 728.744 164.274 726.987 164.067Z" fill="#FDF2EC"/>
<path d="M639.103 178.573C637.213 178.488 635.544 179.994 635.479 181.849C635.413 183.685 636.995 185.414 638.806 185.482C640.669 185.556 642.294 184.037 642.381 182.141C642.471 180.199 641.062 178.663 639.103 178.573Z" fill="#FDF2EC"/>
<path d="M609.177 194.636C609.358 193.057 608.276 191.707 606.703 191.538C605.135 191.369 603.753 192.461 603.583 194.005C603.414 195.529 604.547 196.952 606.072 197.129C607.607 197.307 609.003 196.187 609.177 194.636Z" fill="#FDF2EC"/>
<path d="M671.809 165.802C669.744 165.66 667.905 167.217 667.703 169.28C667.487 171.463 669.088 173.361 671.273 173.52C673.442 173.676 675.332 171.979 675.412 169.815C675.485 167.736 673.874 165.941 671.809 165.802Z" fill="#FDF2EC"/>
<path d="M651.357 213.485C650.925 213.521 650.22 214.048 650.204 214.384C650.179 214.876 650.66 215.395 651.095 216.225C651.717 215.531 652.228 215.201 652.362 214.761C652.583 214.018 652.105 213.423 651.357 213.485Z" fill="#FDF2EC"/>
<path d="M740.856 144.922C740.943 142.671 739.16 140.704 736.939 140.6C734.729 140.499 732.705 142.302 732.563 144.502C732.421 146.737 734.147 148.714 736.398 148.898C738.774 149.089 740.766 147.313 740.856 144.922Z" fill="#FDF2EC"/>
<path d="M476.472 9.66589C481.252 10.0593 485.251 6.65247 485.611 1.88236C485.641 1.48348 485.606 1.09826 485.581 0.713046C483.59 2.93691 480.733 4.36846 477.507 4.36846C473.928 4.36846 470.782 2.6282 468.796 -0.0355253C468.771 0.133861 468.714 0.292273 468.697 0.46439C468.258 5.14161 471.754 9.28067 476.472 9.66589Z" fill="#FDF2EC"/>
<path d="M609.038 15.8523C614.133 16.2211 618.437 12.4919 618.801 7.3885C619.159 2.3725 615.422 -2.00143 610.472 -2.41943C608.893 1.43545 605.203 4.16472 600.819 4.32591C600.661 4.89417 600.549 5.4788 600.508 6.08258C600.15 11.1068 603.971 15.4862 609.038 15.8523Z" fill="#FDF2EC"/>
<path d="M554.13 18.1905C559.049 18.4773 563.379 14.6361 563.674 9.72669C563.802 7.60391 563.15 5.63957 562.01 4.0386C561.188 4.23531 560.347 4.36917 559.465 4.36917C556.28 4.36917 553.45 2.97588 551.461 0.795729C548.265 1.98689 545.957 4.9402 545.725 8.65029C545.414 13.6253 549.183 17.9036 554.13 18.1905Z" fill="#FDF2EC"/>
<path d="M577.887 -3.9692C577.584 1.13422 581.55 5.65577 586.62 5.98907C589.742 6.19397 592.602 4.82523 594.457 2.57678C591.592 0.68349 589.674 -2.53213 589.551 -6.20124H578.327C578.1 -5.48818 577.931 -4.75056 577.887 -3.9692Z" fill="#FDF2EC"/>
<path d="M747.039 117.393C744.414 117.155 741.939 119.231 741.699 121.876C741.459 124.531 743.496 126.941 746.181 127.173C748.916 127.405 751.238 125.46 751.473 122.734C751.705 120.043 749.708 117.636 747.039 117.393Z" fill="#FDF2EC"/>
<path d="M704.502 152.996C702.243 152.797 700.271 154.425 700.044 156.676C699.82 158.922 701.424 160.941 703.655 161.217C705.945 161.501 708.113 159.712 708.28 157.403C708.441 155.174 706.742 153.193 704.502 152.996Z" fill="#FDF2EC"/>
<path d="M659.708 131.726C656.657 131.456 653.963 133.767 653.808 136.786C653.657 139.693 655.985 142.318 658.867 142.507C661.803 142.698 664.365 140.46 664.592 137.507C664.821 134.532 662.672 131.986 659.708 131.726Z" fill="#FDF2EC"/>
<path d="M658.89 191.85C658.742 193.243 659.717 194.502 661.083 194.683C662.526 194.874 663.905 193.74 663.998 192.287C664.088 190.899 663.055 189.717 661.649 189.591C660.231 189.465 659.037 190.443 658.89 191.85Z" fill="#FDF2EC"/>
<path d="M705.619 212.017C705.742 212.347 705.999 212.779 706.281 212.844C706.505 212.899 706.84 212.473 707.349 212.096C706.838 211.793 706.548 211.503 706.242 211.481C706.035 211.47 705.581 211.918 705.619 212.017Z" fill="#FDF2EC"/>
<path d="M316.814 118.855C316.923 118.899 317.39 118.453 317.376 118.254C317.355 117.943 317.06 117.65 316.756 117.139C316.39 117.626 315.975 117.948 316.019 118.18C316.076 118.459 316.494 118.735 316.814 118.855Z" fill="#FDF2EC"/>
<path d="M317.839 63.3104C317.938 61.584 316.659 60.0871 314.919 59.8932C313.04 59.6829 311.48 60.9531 311.311 62.8215C311.144 64.6817 312.475 66.2796 314.302 66.4134C316.088 66.5418 317.736 65.0968 317.839 63.3104Z" fill="#FDF2EC"/>
<path d="M309.814 3.65259C309.093 4.06513 308.686 4.70166 308.719 5.74529C308.741 6.48567 308.623 7.23149 308.569 7.97733C308.52 8.63575 308.531 9.30789 308.41 9.95538C308.173 11.2422 308.785 11.9852 309.858 12.5207C311.833 13.5015 314.278 13.0507 315.777 11.406C317.247 9.78868 317.468 7.25884 316.302 5.412C316.007 4.94209 315.641 4.54051 315.231 4.2072C314.701 4.28916 314.171 4.36835 313.617 4.36835C312.273 4.36835 311 4.09791 309.814 3.65259Z" fill="#FDF2EC"/>
<path d="M339.878 18.6486C340.132 15.7089 337.949 13.1245 335.002 12.8759C332.057 12.6272 329.476 14.8101 329.233 17.7497C328.993 20.6894 331.17 23.2712 334.103 23.5198C337.045 23.7712 339.627 21.5937 339.878 18.6486Z" fill="#FDF2EC"/>
<path d="M338.16 128.373C338.698 128.676 339.064 129.039 339.283 128.965C339.559 128.87 339.788 128.441 339.876 128.113C339.906 128.001 339.414 127.583 339.215 127.616C338.911 127.668 338.657 127.993 338.16 128.373Z" fill="#FDF2EC"/>
<path d="M326.873 97.9155C328.107 97.9155 329.022 97.0305 329.077 95.7822C329.126 94.5748 328.238 93.5341 327.064 93.4248C325.845 93.3101 324.627 94.37 324.573 95.5937C324.515 96.8693 325.553 97.9183 326.873 97.9155Z" fill="#FDF2EC"/>
<path d="M349.169 108.51C350.633 108.587 351.942 107.459 352.045 106.03C352.155 104.542 350.811 103.083 349.33 103.083C347.877 103.08 346.675 104.26 346.623 105.743C346.566 107.259 347.645 108.431 349.169 108.51Z" fill="#FDF2EC"/>
<path d="M362.745 28.7848C363.004 25.5965 360.568 22.8344 357.323 22.635C354.149 22.4437 351.556 24.7058 351.311 27.8832C351.062 31.1152 353.482 33.9209 356.667 34.0876C359.732 34.2488 362.496 31.8364 362.745 28.7848Z" fill="#FDF2EC"/>
<path d="M346.581 55.5649C349.315 55.8681 351.667 53.9366 351.897 51.1991C352.115 48.5791 350.233 46.276 347.644 45.9946C344.97 45.7023 342.541 47.6967 342.304 50.3822C342.077 52.9777 343.973 55.2753 346.581 55.5649Z" fill="#FDF2EC"/>
<path d="M417.863 190.805C418.311 191.259 418.579 191.728 418.808 191.712C419.098 191.69 419.415 191.305 419.592 191.002C419.642 190.912 419.267 190.401 419.057 190.379C418.754 190.349 418.421 190.587 417.863 190.805Z" fill="#FDF2EC"/>
<path d="M509.637 176.634C509.724 174.856 508.484 173.454 506.703 173.315C504.873 173.173 503.259 174.574 503.193 176.361C503.136 178.019 504.534 179.603 506.184 179.742C507.973 179.893 509.547 178.478 509.637 176.634Z" fill="#FDF2EC"/>
<path d="M504.767 115.867C501.631 115.591 498.916 117.883 498.67 121.014C498.424 124.128 500.781 126.874 503.879 127.082C506.881 127.284 509.552 125.03 509.869 122.025C510.194 118.951 507.867 116.143 504.767 115.867Z" fill="#FDF2EC"/>
<path d="M494.983 198.779C494.718 199.596 495.302 200.183 496.094 200.396C496.848 200.598 497.914 199.787 497.763 199.033C497.646 198.435 497.116 197.916 496.518 196.965C495.788 197.793 495.166 198.213 494.983 198.779Z" fill="#FDF2EC"/>
<path d="M493.742 148.533C496.365 148.751 498.689 146.765 498.828 144.186C498.962 141.722 496.993 139.446 494.54 139.225C491.964 138.993 489.667 141.003 489.506 143.632C489.347 146.189 491.191 148.32 493.742 148.533Z" fill="#FDF2EC"/>
<path d="M394.435 122.381C392.591 122.261 390.827 123.827 390.742 125.663C390.654 127.539 392.187 129.176 394.096 129.244C396.041 129.313 397.573 127.845 397.612 125.881C397.647 124.083 396.208 122.496 394.435 122.381Z" fill="#FDF2EC"/>
<path d="M476.009 79.0157C476.173 75.4095 473.516 72.4753 469.894 72.254C466.222 72.0299 463.106 74.8303 462.958 78.4857C462.819 82.01 465.6 85.0836 469.115 85.2912C472.773 85.5098 475.84 82.7149 476.009 79.0157Z" fill="#FDF2EC"/>
<path d="M519.893 209.174C519.843 208.715 519.223 208.136 518.734 207.972C518.448 207.876 517.923 208.485 517.254 208.955C517.838 209.501 518.155 210.015 518.587 210.149C519.324 210.381 519.969 209.87 519.893 209.174Z" fill="#FDF2EC"/>
<path d="M520.808 99.4695C521.07 95.8441 518.478 92.8525 514.851 92.593C511.272 92.3389 508.169 95.0026 507.918 98.546C507.669 102.04 510.439 105.239 513.93 105.488C517.478 105.739 520.551 103.051 520.808 99.4695Z" fill="#FDF2EC"/>
<path d="M554.434 142.033C554.748 139.14 552.481 136.418 549.566 136.2C546.72 135.987 544.221 138.148 543.978 141.027C543.729 143.97 545.756 146.399 548.681 146.666C551.582 146.929 554.12 144.885 554.434 142.033Z" fill="#FDF2EC"/>
<path d="M516.208 158.552C518.658 158.765 520.969 156.763 521.103 154.307C521.242 151.796 519.281 149.681 516.722 149.586C514.239 149.49 512.28 151.288 512.133 153.793C511.993 156.233 513.799 158.345 516.208 158.552Z" fill="#FDF2EC"/>
<path d="M397.082 180.94C397.15 180.828 396.831 180.287 396.64 180.257C396.314 180.205 395.948 180.404 395.599 180.497C395.468 180.699 395.339 180.901 395.211 181.103C395.563 181.273 395.921 181.581 396.271 181.571C396.558 181.562 396.91 181.224 397.082 180.94Z" fill="#FDF2EC"/>
<path d="M408.457 158.459C408.47 157.451 407.591 156.552 406.566 156.536C405.52 156.517 404.671 157.344 404.649 158.393C404.63 159.434 405.474 160.324 406.495 160.335C407.468 160.346 408.443 159.415 408.457 158.459Z" fill="#FDF2EC"/>
<path d="M408.993 103.84C409.25 101.305 407.223 98.9031 404.672 98.7255C402.183 98.5507 399.971 100.436 399.733 102.938C399.49 105.468 401.268 107.689 403.77 107.987C406.379 108.298 408.731 106.433 408.993 103.84Z" fill="#FDF2EC"/>
<path d="M431.481 113.941C431.711 111.299 429.823 109.001 427.225 108.764C424.688 108.531 422.287 110.534 422.041 113.08C421.792 115.659 423.743 117.973 426.362 118.205C429.045 118.443 431.246 116.607 431.481 113.941Z" fill="#FDF2EC"/>
<path d="M459.652 95.5058C456.486 95.3391 453.913 97.6285 453.694 100.811C453.476 103.948 455.765 106.663 458.865 106.945C462.004 107.232 464.913 104.748 465.134 101.601C465.361 98.4072 462.905 95.6752 459.652 95.5058Z" fill="#FDF2EC"/>
<path d="M553.823 196.685C553.924 195.347 552.801 194.134 551.43 194.098C550.121 194.066 549.075 195.019 548.982 196.336C548.887 197.71 549.988 198.939 551.329 198.952C552.552 198.969 553.733 197.895 553.823 196.685Z" fill="#FDF2EC"/>
<path d="M465.121 156.497C465.271 154.519 463.695 152.743 461.718 152.658C459.707 152.574 458.066 154.153 458.036 156.199C458.008 158.155 459.45 159.669 461.42 159.751C463.354 159.836 464.976 158.409 465.121 156.497Z" fill="#FDF2EC"/>
<path d="M449.569 178.448C449.438 179.464 450.195 180.464 451.197 180.595C452.148 180.721 453.211 179.896 453.339 178.929C453.476 177.918 452.719 176.951 451.686 176.82C450.643 176.686 449.706 177.41 449.569 178.448Z" fill="#FDF2EC"/>
<path d="M453.584 68.9734C453.772 65.3972 451.068 62.3783 447.468 62.1434C443.835 61.9084 440.852 64.5094 440.584 68.1457C440.322 71.741 442.95 74.8418 446.515 75.1369C450.131 75.4374 453.395 72.5906 453.584 68.9734Z" fill="#FDF2EC"/>
<path d="M430.866 168.714C430.95 167.651 430.205 166.769 429.145 166.679C428.109 166.591 427.164 167.378 427.08 168.397C426.998 169.378 427.853 170.38 428.833 170.465C429.852 170.552 430.784 169.749 430.866 168.714Z" fill="#FDF2EC"/>
<path d="M498.477 89.3129C498.714 85.6575 495.934 82.5648 492.243 82.379C488.638 82.1987 485.685 84.8379 485.445 88.4578C485.207 92.0367 487.832 95.1075 491.388 95.4108C494.997 95.7195 498.242 92.9247 498.477 89.3129Z" fill="#FDF2EC"/>
<path d="M697.352 125.271C697.639 122.175 695.246 119.389 692.143 119.208C689.114 119.031 686.519 121.326 686.3 124.375C686.082 127.459 688.286 130.024 691.367 130.27C694.413 130.514 697.071 128.292 697.352 125.271Z" fill="#FDF2EC"/>
<path d="M683.929 203.722C684.746 203.618 685.398 203.107 685.245 202.266C685.139 201.684 684.571 201.184 683.956 200.266C683.241 201.13 682.645 201.575 682.454 202.154C682.208 202.889 683.15 203.82 683.929 203.722Z" fill="#FDF2EC"/>
<path d="M686.407 147.792C686.721 145.079 684.801 142.672 682.121 142.421C679.455 142.17 677.054 144.202 676.86 146.874C676.672 149.464 678.595 151.723 681.204 151.975C683.848 152.229 686.101 150.418 686.407 147.792Z" fill="#FDF2EC"/>
<path d="M653.594 159.988C653.837 157.45 652.004 155.215 649.497 154.999C647.019 154.781 644.749 156.715 644.564 159.199C644.375 161.712 646.287 163.879 648.833 164.037C651.321 164.19 653.354 162.461 653.594 159.988Z" fill="#FDF2EC"/>
<path d="M719.174 134.964C719.351 132.213 717.396 129.962 714.645 129.752C711.946 129.547 709.562 131.541 709.316 134.21C709.067 136.907 711.313 139.491 714.014 139.617C716.696 139.743 718.996 137.669 719.174 134.964Z" fill="#FDF2EC"/>
<path d="M718.362 189.822C718.441 188.803 717.63 187.88 716.594 187.806C715.529 187.727 714.658 188.478 714.576 189.543C714.497 190.578 715.291 191.518 716.31 191.592C717.291 191.666 718.291 190.805 718.362 189.822Z" fill="#FDF2EC"/>
<path d="M737.922 199.679C738.381 200.069 738.621 200.408 738.922 200.479C739.118 200.526 739.629 200.132 739.607 200.015C739.542 199.682 739.331 199.231 739.064 199.127C738.848 199.045 738.463 199.397 737.922 199.679Z" fill="#FDF2EC"/>
<path d="M565.368 174.329C565.524 172.17 563.808 170.258 561.653 170.179C559.577 170.105 557.799 171.706 557.654 173.779C557.504 175.965 559.162 177.817 561.353 177.91C563.418 177.998 565.22 176.391 565.368 174.329Z" fill="#FDF2EC"/>
<path d="M740.411 90.167C740.654 86.7739 738.141 83.8041 734.784 83.5227C731.397 83.2386 728.223 86.0116 728.062 89.3966C727.898 92.7706 730.485 95.642 733.888 95.8661C737.311 96.0928 740.166 93.5985 740.411 90.167Z" fill="#FDF2EC"/>
<path d="M642.649 127.344C642.851 124.145 640.423 121.355 637.221 121.112C633.998 120.869 631.212 123.232 630.936 126.445C630.652 129.745 633.162 132.658 636.448 132.835C639.636 133.004 642.447 130.516 642.649 127.344Z" fill="#FDF2EC"/>
<path d="M571.904 206.426C571.795 207.39 572.631 208.426 573.606 208.538C574.622 208.655 575.57 207.882 575.682 206.844C575.797 205.792 575.065 204.877 574.018 204.762C572.989 204.648 572.016 205.413 571.904 206.426Z" fill="#FDF2EC"/>
<path d="M629 202.53C628.022 202.448 627.017 203.301 626.932 204.284C626.847 205.303 627.65 206.234 628.683 206.316C629.745 206.401 630.628 205.655 630.718 204.595C630.805 203.56 630.019 202.615 629 202.53Z" fill="#FDF2EC"/>
<path d="M571.287 156.586C573.902 156.761 576.344 154.682 576.598 152.067C576.863 149.324 574.754 146.876 571.959 146.682C569.217 146.494 566.958 148.414 566.712 151.149C566.461 153.949 568.523 156.4 571.287 156.586Z" fill="#FDF2EC"/>
<path d="M595.17 216.798C595.039 217.511 595.67 218.03 596.41 217.855C596.844 217.751 597.188 217.249 597.792 216.743C597.161 216.232 596.675 215.582 596.391 215.662C595.899 215.801 595.254 216.336 595.17 216.798Z" fill="#FDF2EC"/>
<path d="M593.751 166.304C596.278 166.476 598.446 164.58 598.624 162.045C598.804 159.496 596.933 157.351 594.379 157.179C591.842 157.007 589.67 158.895 589.495 161.422C589.323 163.927 591.246 166.132 593.751 166.304Z" fill="#FDF2EC"/>
<path d="M609.634 139.626C609.839 136.569 607.52 133.924 604.499 133.769C601.606 133.624 598.976 135.905 598.714 138.787C598.44 141.801 600.724 144.467 603.781 144.702C606.9 144.943 609.427 142.752 609.634 139.626Z" fill="#FDF2EC"/>
<path d="M618.72 226.179C618.4 226.11 618.004 226.384 617.641 226.506C617.739 226.717 617.837 226.924 617.936 227.135C618.244 227.282 618.558 227.542 618.864 227.534C619.077 227.525 619.495 227.045 619.452 226.96C619.293 226.643 619.017 226.244 618.72 226.179Z" fill="#FDF2EC"/>
<path d="M616.174 175.948C618.425 176.142 620.416 174.47 620.608 172.219C620.801 169.962 619.135 167.973 616.882 167.777C614.628 167.58 612.631 169.255 612.438 171.511C612.241 173.757 613.923 175.754 616.174 175.948Z" fill="#FDF2EC"/>
<path d="M620.576 117.379C620.879 113.955 618.197 110.808 614.763 110.568C611.297 110.324 608.325 112.991 608.131 116.521C607.943 119.966 610.442 122.777 613.906 123.017C617.315 123.252 620.278 120.747 620.576 117.379Z" fill="#FDF2EC"/>
<path d="M590.898 28.5882C590.587 33.2271 594.129 37.3934 598.779 37.8524C603.499 38.3196 607.779 34.7024 608.172 29.9214C608.568 25.0775 605.061 20.9549 600.232 20.5888C595.435 20.2227 591.22 23.8372 590.898 28.5882Z" fill="#FDF2EC"/>
<path d="M691.617 -0.851018C692.967 0.269111 694.635 1.01768 696.479 1.19253C701.126 1.63238 705.253 -1.65972 706.051 -6.20307H693.267C693.201 -4.23602 692.584 -2.42193 691.617 -0.851018Z" fill="#FDF2EC"/>
<path d="M646.126 26.2756C645.722 31.002 649.185 35.1328 653.886 35.529C658.568 35.9224 662.734 32.4145 663.138 27.7372C663.545 23.0272 660.073 18.9155 655.347 18.5139C650.592 18.1096 646.533 21.5274 646.126 26.2756Z" fill="#FDF2EC"/>
<path d="M623.265 16.1857C622.877 21.0678 626.786 25.5319 631.656 25.7723C636.548 26.0155 640.681 22.3245 641.004 17.4287C641.326 12.5412 637.676 8.36938 632.776 8.02514C627.898 7.68364 623.653 11.3281 623.265 16.1857Z" fill="#FDF2EC"/>
<path d="M391.666 76.4736C394.564 76.6567 397.211 74.3618 397.432 71.4686C397.667 68.447 395.313 65.8188 392.245 65.6767C389.279 65.5428 386.815 67.7803 386.645 70.7692C386.479 73.7197 388.738 76.2879 391.666 76.4736Z" fill="#FDF2EC"/>
<path d="M449.741 45.5748C449.43 49.6045 452.372 53.0851 456.354 53.402C460.288 53.7162 463.863 50.67 464.186 46.7305C464.508 42.7554 461.525 39.2775 457.507 38.9551C453.443 38.63 450.053 41.5178 449.741 45.5748Z" fill="#FDF2EC"/>
<path d="M718.587 80.3096C718.844 76.5831 716.044 73.3976 712.277 73.1326C708.486 72.8621 705.358 75.5914 705.102 79.3916C704.85 83.1509 707.636 86.3692 711.36 86.6206C715.044 86.8664 718.336 83.9951 718.587 80.3096Z" fill="#FDF2EC"/>
<path d="M459.154 22.9909C458.753 27.2392 462.069 31.1979 466.36 31.5995C470.662 32.0038 474.535 28.7363 474.91 24.3924C475.289 19.9938 472.126 16.2154 467.758 15.8411C463.388 15.4696 459.567 18.6442 459.154 22.9909Z" fill="#FDF2EC"/>
<path d="M739.774 35.176C740.017 31.0534 736.813 27.357 732.704 27.0182C728.487 26.6685 724.756 29.925 724.474 34.2061C724.198 38.4134 727.282 41.9733 731.489 42.3011C735.761 42.6344 739.528 39.3942 739.774 35.176Z" fill="#FDF2EC"/>
<path d="M722.577 49.9578C718.51 49.6136 715.104 52.4903 714.779 56.5392C714.454 60.5716 717.374 64.0604 721.356 64.3992C725.287 64.7325 728.873 61.7055 729.218 57.7632C729.562 53.7936 726.587 50.2938 722.577 49.9578Z" fill="#FDF2EC"/>
<path d="M723.824 117.779C726.859 117.951 729.489 115.65 729.73 112.618C729.978 109.479 727.618 106.768 724.469 106.583C721.437 106.402 718.792 108.703 718.549 111.727C718.298 114.858 720.694 117.604 723.824 117.779Z" fill="#FDF2EC"/>
<path d="M750.197 12.6588C750.44 8.29846 747.17 4.55283 742.833 4.22225C738.432 3.88895 734.507 7.28487 734.206 11.6862C733.903 16.1202 737.266 19.9286 741.74 20.21C746.239 20.4942 749.946 17.1857 750.197 12.6588Z" fill="#FDF2EC"/>
<path d="M756.426 105.406C759.475 105.558 762.048 103.22 762.217 100.144C762.389 97.04 760.122 94.5293 756.997 94.36C753.93 94.1933 751.324 96.5291 751.171 99.5753C751.021 102.597 753.413 105.253 756.426 105.406Z" fill="#FDF2EC"/>
<path d="M755.132 37.7478C751.231 37.4227 747.801 40.3323 747.467 44.2391C747.134 48.1267 750.06 51.5718 753.96 51.8915C757.866 52.2111 761.292 49.3096 761.611 45.4083C761.931 41.4961 759.033 38.0702 755.132 37.7478Z" fill="#FDF2EC"/>
<path d="M713.115 -2.96651C712.069 -1.64694 711.397 0.0031662 711.282 1.85275C710.993 6.57368 714.546 10.6062 719.245 10.8848C723.812 11.158 727.8 7.68562 728.234 3.16413C726.759 3.90997 725.12 4.36893 723.353 4.36893C718.589 4.36893 714.601 1.29271 713.115 -2.96651Z" fill="#FDF2EC"/>
<path d="M743.913 73.9866C747.614 74.2653 750.837 71.4076 751.061 67.6429C751.283 63.9574 748.595 60.8975 744.899 60.627C741.157 60.3538 737.871 63.2115 737.688 66.9025C737.51 70.4978 740.337 73.7161 743.913 73.9866Z" fill="#FDF2EC"/>
<path d="M523.992 2.8298C525.347 5.76399 528.201 7.89765 531.66 8.11622C536.604 8.42767 540.909 4.67389 541.275 -0.26834C541.439 -2.47581 540.764 -4.53302 539.573 -6.20228H529.379C529.25 -2.3392 527.112 0.985682 523.992 2.8298Z" fill="#FDF2EC"/>
<path d="M385.459 38.9729C385.746 35.7191 383.238 32.7329 379.971 32.4434C376.677 32.151 373.782 34.6071 373.5 37.9347C373.213 41.3279 375.56 44.12 378.933 44.4069C382.271 44.6883 385.169 42.2759 385.459 38.9729Z" fill="#FDF2EC"/>
<path d="M360.624 5.37921C360.353 8.8762 363.115 12.0972 366.617 12.3677C370.171 12.6436 373.268 9.96351 373.541 6.3709C373.82 2.72639 371.25 -0.273393 367.608 -0.549326C364.011 -0.822529 360.902 1.81939 360.624 5.37921Z" fill="#FDF2EC"/>
<path d="M381.476 97.878C383.904 98.1075 386.084 96.329 386.321 93.9275C386.556 91.5889 384.68 89.3213 382.317 89.0809C379.927 88.8378 377.747 90.66 377.52 93.0833C377.291 95.5503 379.023 97.6485 381.476 97.878Z" fill="#FDF2EC"/>
<path d="M373.275 170.926C373.313 171.232 373.627 171.505 373.974 172.007C374.304 171.497 374.695 171.152 374.635 170.928C374.558 170.65 374.135 170.393 373.81 170.295C373.693 170.259 373.247 170.729 373.275 170.926Z" fill="#FDF2EC"/>
<path d="M359.127 87.5406C361.328 87.7046 363.393 85.9533 363.596 83.7485C363.809 81.4318 361.976 79.3609 359.616 79.2489C357.338 79.1396 355.445 80.8444 355.308 83.1338C355.174 85.385 356.898 87.3767 359.127 87.5406Z" fill="#FDF2EC"/>
<path d="M369.149 66.0653C372.009 66.2893 374.541 64.1693 374.776 61.3498C375.005 58.585 372.774 55.9541 369.998 55.7164C367.196 55.476 364.664 57.6506 364.429 60.5001C364.191 63.4043 366.253 65.8358 369.149 66.0653Z" fill="#FDF2EC"/>
<path d="M371.828 112.857C370.183 112.819 368.793 114.07 368.659 115.706C368.517 117.425 369.839 118.952 371.565 119.058C373.294 119.165 374.783 117.823 374.86 116.094C374.933 114.368 373.557 112.896 371.828 112.857Z" fill="#FDF2EC"/>
<path d="M385.784 148.688C385.86 147.808 385.065 146.912 384.145 146.891C383.189 146.866 382.593 147.344 382.432 148.295C382.276 149.223 382.97 150.141 383.877 150.248C384.737 150.349 385.71 149.554 385.784 148.688Z" fill="#FDF2EC"/>
<path d="M363.048 138.336C362.854 137.738 362.266 137.265 361.595 136.408C360.972 137.287 360.387 137.781 360.256 138.374C360.073 139.21 360.663 139.737 361.532 139.814C362.387 139.89 363.296 139.09 363.048 138.336Z" fill="#FDF2EC"/>
<path d="M436.801 13.2176C436.607 17.4768 439.855 21.0667 444.141 21.3317C448.432 21.5967 452.049 18.4357 452.366 14.1464C452.688 9.76427 449.429 6.02141 445.07 5.76187C440.74 5.50506 436.998 8.87912 436.801 13.2176Z" fill="#FDF2EC"/>
<path d="M417.036 132.418C415.039 132.208 413.288 133.699 413.146 135.729C413.012 137.683 414.37 139.295 416.312 139.486C418.333 139.683 420.095 138.207 420.229 136.202C420.352 134.322 418.912 132.618 417.036 132.418Z" fill="#FDF2EC"/>
<path d="M401.352 54.8345C404.775 55.1378 407.919 52.455 408.162 49.0181C408.405 45.5539 405.737 42.5814 402.21 42.3875C398.763 42.199 395.952 44.6987 395.714 48.1629C395.48 51.5725 397.984 54.534 401.352 54.8345Z" fill="#FDF2EC"/>
<path d="M431.191 90.7383C431.027 93.8118 433.521 96.6121 436.572 96.7842C439.689 96.9618 442.358 94.5576 442.555 91.3994C442.751 88.2303 440.418 85.6076 437.233 85.4191C434.092 85.2333 431.355 87.6429 431.191 90.7383Z" fill="#FDF2EC"/>
<path d="M434.896 28.8993C430.982 28.6589 427.562 31.6422 427.308 35.5272C427.054 39.3875 430.064 42.8736 433.921 43.1796C437.895 43.4938 441.367 40.4175 441.591 36.3796C441.81 32.451 438.851 29.1424 434.896 28.8993Z" fill="#FDF2EC"/>
<path d="M430.806 58.875C431.01 55.4217 428.399 52.4028 424.944 52.0996C421.324 51.7799 418.27 54.3453 417.978 57.9489C417.691 61.5196 420.355 64.6587 423.892 64.9155C427.377 65.1669 430.598 62.3529 430.806 58.875Z" fill="#FDF2EC"/>
<path d="M414.172 86.5437C417.212 86.7104 419.845 84.4073 420.088 81.3775C420.337 78.2603 417.944 75.5255 414.805 75.3425C411.762 75.1676 409.146 77.4516 408.908 80.4923C408.662 83.6232 411.055 86.3744 414.172 86.5437Z" fill="#FDF2EC"/>
<path d="M382.792 15.4119C382.462 19.1274 385.221 22.3867 388.969 22.7091C392.765 23.0342 395.948 20.3623 396.259 16.5812C396.57 12.8083 393.863 9.56258 390.138 9.23747C386.464 8.91782 383.118 11.7291 382.792 15.4119Z" fill="#FDF2EC"/>
<path d="M414.574 2.8509C414.252 7.06367 417.327 10.6781 421.526 11.0251C425.806 11.3775 429.584 8.12912 429.816 3.89448C429.857 3.17596 429.759 2.48206 429.606 1.80725C428.112 0.558713 426.972 -1.06961 426.314 -2.94651C425.252 -3.64864 424.028 -4.12398 422.692 -4.21414C418.535 -4.49554 414.891 -1.32636 414.574 2.8509Z" fill="#FDF2EC"/>
<path d="M418.953 26.3687C419.111 22.4974 416.227 19.3856 412.299 19.1916C408.488 19.0004 405.183 21.9838 405 25.7786C404.82 29.5542 407.83 32.9228 411.583 33.1386C415.497 33.3681 418.786 30.3465 418.953 26.3687Z" fill="#FDF2EC"/>
<path opacity="0.7" d="M49 63L15.225 13.5H82.775L49 63Z" fill="#FABB72" fill-opacity="0.5"/>
<path opacity="0.7" d="M75 46L41.225 -3.5H108.775L75 46Z" fill="#F7D692"/>
<path opacity="0.7" d="M120 -11L153.775 38.5L86.225 38.5L120 -11Z" fill="#F6CA6C"/>
</g>
<defs>
<clipPath id="clip0_4_4">
<rect width="803.255" height="449.686" fill="white"/>
</clipPath>
</defs>
</svg>
