<svg width="910" height="1000" viewBox="0 0 910 1000" fill="none" xmlns="http://www.w3.org/2000/svg">
<g clip-path="url(#clip0_8009_88728)">
<circle cx="558" cy="558" r="558" transform="matrix(-1 0 0 1 1022 154)" fill="url(#paint0_linear_8009_88728)" fill-opacity="0.03"/>
<circle cx="324.5" cy="324.5" r="324.5" transform="matrix(-1 0 0 1 494 -191)" fill="white"/>
<path d="M77.152 145.749C76.048 145.749 75.056 145.557 74.176 145.173C73.312 144.773 72.632 144.229 72.136 143.541C71.64 142.837 71.384 142.029 71.368 141.117H73.696C73.776 141.901 74.096 142.565 74.656 143.109C75.232 143.637 76.064 143.901 77.152 143.901C78.192 143.901 79.008 143.645 79.6 143.133C80.208 142.605 80.512 141.933 80.512 141.117C80.512 140.477 80.336 139.957 79.984 139.557C79.632 139.157 79.192 138.853 78.664 138.645C78.136 138.437 77.424 138.213 76.528 137.973C75.424 137.685 74.536 137.397 73.864 137.109C73.208 136.821 72.64 136.373 72.16 135.765C71.696 135.141 71.464 134.309 71.464 133.269C71.464 132.357 71.696 131.549 72.16 130.845C72.624 130.141 73.272 129.597 74.104 129.213C74.952 128.829 75.92 128.637 77.008 128.637C78.576 128.637 79.856 129.029 80.848 129.813C81.856 130.597 82.424 131.637 82.552 132.933H80.152C80.072 132.293 79.736 131.733 79.144 131.253C78.552 130.757 77.768 130.509 76.792 130.509C75.88 130.509 75.136 130.749 74.56 131.229C73.984 131.693 73.696 132.349 73.696 133.197C73.696 133.805 73.864 134.301 74.2 134.685C74.552 135.069 74.976 135.365 75.472 135.573C75.984 135.765 76.696 135.989 77.608 136.245C78.712 136.549 79.6 136.853 80.272 137.157C80.944 137.445 81.52 137.901 82 138.525C82.48 139.133 82.72 139.965 82.72 141.021C82.72 141.837 82.504 142.605 82.072 143.325C81.64 144.045 81 144.629 80.152 145.077C79.304 145.525 78.304 145.749 77.152 145.749ZM97.9339 138.501C97.9339 138.917 97.9099 139.357 97.8619 139.821H87.3499C87.4299 141.117 87.8699 142.133 88.6699 142.869C89.4859 143.589 90.4699 143.949 91.6219 143.949C92.5659 143.949 93.3499 143.733 93.9739 143.301C94.6139 142.853 95.0619 142.261 95.3179 141.525H97.6699C97.3179 142.789 96.6139 143.821 95.5579 144.621C94.5019 145.405 93.1899 145.797 91.6219 145.797C90.3739 145.797 89.2539 145.517 88.2619 144.957C87.2859 144.397 86.5179 143.605 85.9579 142.581C85.3979 141.541 85.1179 140.341 85.1179 138.981C85.1179 137.621 85.3899 136.429 85.9339 135.405C86.4779 134.381 87.2379 133.597 88.2139 133.053C89.2059 132.493 90.3419 132.213 91.6219 132.213C92.8699 132.213 93.9739 132.485 94.9339 133.029C95.8939 133.573 96.6299 134.325 97.1419 135.285C97.6699 136.229 97.9339 137.301 97.9339 138.501ZM95.6779 138.045C95.6779 137.213 95.4939 136.501 95.1259 135.909C94.7579 135.301 94.2539 134.845 93.6139 134.541C92.9899 134.221 92.2939 134.061 91.5259 134.061C90.4219 134.061 89.4779 134.413 88.6939 135.117C87.9259 135.821 87.4859 136.797 87.3739 138.045H95.6779ZM103.001 127.821V145.581H100.817V127.821H103.001ZM105.907 138.957C105.907 137.613 106.179 136.437 106.723 135.429C107.267 134.405 108.011 133.613 108.955 133.053C109.915 132.493 110.979 132.213 112.147 132.213C113.299 132.213 114.299 132.461 115.147 132.957C115.995 133.453 116.627 134.077 117.043 134.829V132.429H119.251V145.581H117.043V143.133C116.611 143.901 115.963 144.541 115.099 145.053C114.251 145.549 113.259 145.797 112.123 145.797C110.955 145.797 109.899 145.509 108.955 144.933C108.011 144.357 107.267 143.549 106.723 142.509C106.179 141.469 105.907 140.285 105.907 138.957ZM117.043 138.981C117.043 137.989 116.843 137.125 116.443 136.389C116.043 135.653 115.499 135.093 114.811 134.709C114.139 134.309 113.395 134.109 112.579 134.109C111.763 134.109 111.019 134.301 110.347 134.685C109.675 135.069 109.139 135.629 108.739 136.365C108.339 137.101 108.139 137.965 108.139 138.957C108.139 139.965 108.339 140.845 108.739 141.597C109.139 142.333 109.675 142.901 110.347 143.301C111.019 143.685 111.763 143.877 112.579 143.877C113.395 143.877 114.139 143.685 114.811 143.301C115.499 142.901 116.043 142.333 116.443 141.597C116.843 140.845 117.043 139.973 117.043 138.981ZM138.758 132.189C139.782 132.189 140.694 132.405 141.494 132.837C142.294 133.253 142.926 133.885 143.39 134.733C143.854 135.581 144.086 136.613 144.086 137.829V145.581H141.926V138.141C141.926 136.829 141.598 135.829 140.942 135.141C140.302 134.437 139.43 134.085 138.326 134.085C137.19 134.085 136.286 134.453 135.614 135.189C134.942 135.909 134.606 136.957 134.606 138.333V145.581H132.446V138.141C132.446 136.829 132.118 135.829 131.462 135.141C130.822 134.437 129.95 134.085 128.846 134.085C127.71 134.085 126.806 134.453 126.134 135.189C125.462 135.909 125.126 136.957 125.126 138.333V145.581H122.942V132.429H125.126V134.325C125.558 133.637 126.134 133.109 126.854 132.741C127.59 132.373 128.398 132.189 129.278 132.189C130.382 132.189 131.358 132.437 132.206 132.933C133.054 133.429 133.686 134.157 134.102 135.117C134.47 134.189 135.078 133.469 135.926 132.957C136.774 132.445 137.718 132.189 138.758 132.189ZM146.852 138.957C146.852 137.613 147.124 136.437 147.668 135.429C148.212 134.405 148.956 133.613 149.9 133.053C150.86 132.493 151.924 132.213 153.092 132.213C154.244 132.213 155.244 132.461 156.092 132.957C156.94 133.453 157.572 134.077 157.988 134.829V132.429H160.196V145.581H157.988V143.133C157.556 143.901 156.908 144.541 156.044 145.053C155.196 145.549 154.204 145.797 153.068 145.797C151.9 145.797 150.844 145.509 149.9 144.933C148.956 144.357 148.212 143.549 147.668 142.509C147.124 141.469 146.852 140.285 146.852 138.957ZM157.988 138.981C157.988 137.989 157.788 137.125 157.388 136.389C156.988 135.653 156.444 135.093 155.756 134.709C155.084 134.309 154.34 134.109 153.524 134.109C152.708 134.109 151.964 134.301 151.292 134.685C150.62 135.069 150.084 135.629 149.684 136.365C149.284 137.101 149.084 137.965 149.084 138.957C149.084 139.965 149.284 140.845 149.684 141.597C150.084 142.333 150.62 142.901 151.292 143.301C151.964 143.685 152.708 143.877 153.524 143.877C154.34 143.877 155.084 143.685 155.756 143.301C156.444 142.901 156.988 142.333 157.388 141.597C157.788 140.845 157.988 139.973 157.988 138.981ZM166.551 134.229V141.981C166.551 142.621 166.687 143.077 166.959 143.349C167.231 143.605 167.703 143.733 168.375 143.733H169.983V145.581H168.015C166.799 145.581 165.887 145.301 165.279 144.741C164.671 144.181 164.367 143.261 164.367 141.981V134.229H162.663V132.429H164.367V129.117H166.551V132.429H169.983V134.229H166.551ZM184.236 128.853C186.06 128.853 187.636 129.197 188.964 129.885C190.308 130.557 191.332 131.525 192.036 132.789C192.756 134.053 193.116 135.541 193.116 137.253C193.116 138.965 192.756 140.453 192.036 141.717C191.332 142.965 190.308 143.925 188.964 144.597C187.636 145.253 186.06 145.581 184.236 145.581H179.028V128.853H184.236ZM184.236 143.781C186.396 143.781 188.044 143.213 189.18 142.077C190.316 140.925 190.884 139.317 190.884 137.253C190.884 135.173 190.308 133.549 189.156 132.381C188.02 131.213 186.38 130.629 184.236 130.629H181.212V143.781H184.236ZM195.18 138.957C195.18 137.613 195.452 136.437 195.996 135.429C196.54 134.405 197.284 133.613 198.228 133.053C199.188 132.493 200.252 132.213 201.42 132.213C202.572 132.213 203.572 132.461 204.42 132.957C205.268 133.453 205.9 134.077 206.316 134.829V132.429H208.524V145.581H206.316V143.133C205.884 143.901 205.236 144.541 204.372 145.053C203.524 145.549 202.532 145.797 201.396 145.797C200.228 145.797 199.172 145.509 198.228 144.933C197.284 144.357 196.54 143.549 195.996 142.509C195.452 141.469 195.18 140.285 195.18 138.957ZM206.316 138.981C206.316 137.989 206.116 137.125 205.716 136.389C205.316 135.653 204.772 135.093 204.084 134.709C203.412 134.309 202.668 134.109 201.852 134.109C201.036 134.109 200.292 134.301 199.62 134.685C198.948 135.069 198.412 135.629 198.012 136.365C197.612 137.101 197.412 137.965 197.412 138.957C197.412 139.965 197.612 140.845 198.012 141.597C198.412 142.333 198.948 142.901 199.62 143.301C200.292 143.685 201.036 143.877 201.852 143.877C202.668 143.877 203.412 143.685 204.084 143.301C204.772 142.901 205.316 142.333 205.716 141.597C206.116 140.845 206.316 139.973 206.316 138.981ZM214.879 134.229V141.981C214.879 142.621 215.015 143.077 215.287 143.349C215.559 143.605 216.031 143.733 216.703 143.733H218.311V145.581H216.343C215.127 145.581 214.215 145.301 213.607 144.741C212.999 144.181 212.695 143.261 212.695 141.981V134.229H210.991V132.429H212.695V129.117H214.879V132.429H218.311V134.229H214.879ZM220.141 138.957C220.141 137.613 220.413 136.437 220.957 135.429C221.501 134.405 222.245 133.613 223.189 133.053C224.149 132.493 225.213 132.213 226.381 132.213C227.533 132.213 228.533 132.461 229.381 132.957C230.229 133.453 230.861 134.077 231.277 134.829V132.429H233.485V145.581H231.277V143.133C230.845 143.901 230.197 144.541 229.333 145.053C228.485 145.549 227.493 145.797 226.357 145.797C225.189 145.797 224.133 145.509 223.189 144.933C222.245 144.357 221.501 143.549 220.957 142.509C220.413 141.469 220.141 140.285 220.141 138.957ZM231.277 138.981C231.277 137.989 231.077 137.125 230.677 136.389C230.277 135.653 229.733 135.093 229.045 134.709C228.373 134.309 227.629 134.109 226.813 134.109C225.997 134.109 225.253 134.301 224.581 134.685C223.909 135.069 223.373 135.629 222.973 136.365C222.573 137.101 222.373 137.965 222.373 138.957C222.373 139.965 222.573 140.845 222.973 141.597C223.373 142.333 223.909 142.901 224.581 143.301C225.253 143.685 225.997 143.877 226.813 143.877C227.629 143.877 228.373 143.685 229.045 143.301C229.733 142.901 230.277 142.333 230.677 141.597C231.077 140.845 231.277 139.973 231.277 138.981ZM243.584 132.189C245.184 132.189 246.48 132.677 247.472 133.653C248.464 134.613 248.96 136.005 248.96 137.829V145.581H246.8V138.141C246.8 136.829 246.472 135.829 245.816 135.141C245.16 134.437 244.264 134.085 243.128 134.085C241.976 134.085 241.056 134.445 240.368 135.165C239.696 135.885 239.36 136.933 239.36 138.309V145.581H237.176V132.429H239.36V134.301C239.792 133.629 240.376 133.109 241.112 132.741C241.864 132.373 242.688 132.189 243.584 132.189ZM257.952 132.213C259.088 132.213 260.08 132.461 260.928 132.957C261.792 133.453 262.432 134.077 262.848 134.829V132.429H265.056V145.869C265.056 147.069 264.8 148.133 264.288 149.061C263.776 150.005 263.04 150.741 262.08 151.269C261.136 151.797 260.032 152.061 258.768 152.061C257.04 152.061 255.6 151.653 254.448 150.837C253.296 150.021 252.616 148.909 252.408 147.501H254.568C254.808 148.301 255.304 148.941 256.056 149.421C256.808 149.917 257.712 150.165 258.768 150.165C259.968 150.165 260.944 149.789 261.696 149.037C262.464 148.285 262.848 147.229 262.848 145.869V143.109C262.416 143.877 261.776 144.517 260.928 145.029C260.08 145.541 259.088 145.797 257.952 145.797C256.784 145.797 255.72 145.509 254.76 144.933C253.816 144.357 253.072 143.549 252.528 142.509C251.984 141.469 251.712 140.285 251.712 138.957C251.712 137.613 251.984 136.437 252.528 135.429C253.072 134.405 253.816 133.613 254.76 133.053C255.72 132.493 256.784 132.213 257.952 132.213ZM262.848 138.981C262.848 137.989 262.648 137.125 262.248 136.389C261.848 135.653 261.304 135.093 260.616 134.709C259.944 134.309 259.2 134.109 258.384 134.109C257.568 134.109 256.824 134.301 256.152 134.685C255.48 135.069 254.944 135.629 254.544 136.365C254.144 137.101 253.944 137.965 253.944 138.957C253.944 139.965 254.144 140.845 254.544 141.597C254.944 142.333 255.48 142.901 256.152 143.301C256.824 143.685 257.568 143.877 258.384 143.877C259.2 143.877 259.944 143.685 260.616 143.301C261.304 142.901 261.848 142.333 262.248 141.597C262.648 140.845 262.848 139.973 262.848 138.981ZM274.329 138.957C274.329 137.613 274.601 136.437 275.145 135.429C275.689 134.405 276.433 133.613 277.377 133.053C278.337 132.493 279.409 132.213 280.593 132.213C281.617 132.213 282.569 132.453 283.449 132.933C284.329 133.397 285.001 134.013 285.465 134.781V127.821H287.673V145.581H285.465V143.109C285.033 143.893 284.393 144.541 283.545 145.053C282.697 145.549 281.705 145.797 280.569 145.797C279.401 145.797 278.337 145.509 277.377 144.933C276.433 144.357 275.689 143.549 275.145 142.509C274.601 141.469 274.329 140.285 274.329 138.957ZM285.465 138.981C285.465 137.989 285.265 137.125 284.865 136.389C284.465 135.653 283.921 135.093 283.233 134.709C282.561 134.309 281.817 134.109 281.001 134.109C280.185 134.109 279.441 134.301 278.769 134.685C278.097 135.069 277.561 135.629 277.161 136.365C276.761 137.101 276.561 137.965 276.561 138.957C276.561 139.965 276.761 140.845 277.161 141.597C277.561 142.333 278.097 142.901 278.769 143.301C279.441 143.685 280.185 143.877 281.001 143.877C281.817 143.877 282.561 143.685 283.233 143.301C283.921 142.901 284.465 142.333 284.865 141.597C285.265 140.845 285.465 139.973 285.465 138.981ZM292.492 130.293C292.076 130.293 291.724 130.149 291.436 129.861C291.148 129.573 291.004 129.221 291.004 128.805C291.004 128.389 291.148 128.037 291.436 127.749C291.724 127.461 292.076 127.317 292.492 127.317C292.892 127.317 293.228 127.461 293.5 127.749C293.788 128.037 293.932 128.389 293.932 128.805C293.932 129.221 293.788 129.573 293.5 129.861C293.228 130.149 292.892 130.293 292.492 130.293ZM293.548 132.429V145.581H291.364V132.429H293.548ZM299.526 142.557L296.838 149.013H295.374L297.126 142.557H299.526Z" fill="white"/>
</g>
<defs>
<linearGradient id="paint0_linear_8009_88728" x1="558" y1="0" x2="558" y2="1116" gradientUnits="userSpaceOnUse">
<stop stop-color="#1443EB"/>
<stop offset="1" stop-color="#0B2685"/>
</linearGradient>
<clipPath id="clip0_8009_88728">
<rect width="910" height="1000" fill="white"/>
</clipPath>
</defs>
</svg>
