<svg width="36" height="36" viewBox="0 0 36 36" fill="none" xmlns="http://www.w3.org/2000/svg">
<g clip-path="url(#clip0_4015_65467)">
<path d="M2.99142 29.9316C1.88495 29.9316 1 29.0095 1 27.9073V6.04644C1 5.46834 1.4704 4.99969 2.05069 4.99969H14.7689C15.3492 4.99969 15.8196 5.46834 15.8196 6.04644V6.38141H28.2497C28.83 6.38141 29.3005 6.85006 29.3005 7.42815V9.80241C29.3005 9.80241 11.9094 29.9316 2.99142 29.9316Z" fill="#F46E16"/>
<path d="M5.01366 27.9336H3.21697C3.10093 27.9336 3.00684 27.8399 3.00684 27.7243V8.4733C3.00684 8.35773 3.10093 8.26399 3.21697 8.26399H27.098C27.214 8.26399 27.3081 8.35773 27.3081 8.4733V9.80359L5.01366 27.9336Z" fill="white"/>
<path d="M33.9114 10.8491V27.9324C33.9114 29.0366 33.0131 29.9316 31.9045 29.9316H3.00684C4.1151 29.9316 5.01365 29.0366 5.01365 27.9324V10.8491C5.01365 10.2709 5.48418 9.80247 6.06435 9.80247H32.8608C33.4409 9.80247 33.9114 10.2709 33.9114 10.8491Z" fill="#FBC818"/>
</g>
<defs>
<clipPath id="clip0_4015_65467">
<rect width="33" height="25" fill="white" transform="translate(1 5)"/>
</clipPath>
</defs>
</svg>
