<svg width="36" height="36" viewBox="0 0 36 36" fill="none" xmlns="http://www.w3.org/2000/svg">
<g clip-path="url(#clip0_4015_65450)">
<path d="M21.5824 0.999057L17.0489 3.59911C9.46989 8.69232 5.86969 17.9677 7.31295 27.0031L8.42977 33.9961H21.5824L28.8643 0.999057H21.5824Z" fill="#F4F5F5"/>
<path d="M23.243 3.82487H19.0007C11.4214 8.9178 7.49043 17.9694 8.93368 27.0048L9.59355 31.1367H13.349L12.6892 27.0048C11.2462 17.9694 15.6639 8.9178 23.243 3.82487Z" fill="#F46E16"/>
<path d="M28.864 0.999057L24.6618 3.82316C17.0825 8.91609 13.1516 17.9677 14.5948 27.0031L15.7116 33.9961H28.864V0.999057Z" fill="#F4F5F5"/>
<path d="M27.3356 4.02489C19.1491 9.12727 14.9262 18.7482 16.7018 28.2503L17.2411 31.1367H27.3356V4.02489Z" fill="#FBC818"/>
</g>
<defs>
<clipPath id="clip0_4015_65450">
<rect width="22" height="33" fill="white" transform="translate(7 1)"/>
</clipPath>
</defs>
</svg>
