<svg width="36" height="36" viewBox="0 0 36 36" fill="none" xmlns="http://www.w3.org/2000/svg">
<path d="M31.7295 31.9395C31.7295 32.5273 31.2523 33.0039 30.6638 33.0039H6.06556C5.47697 33.0039 5 32.5273 5 31.9395V2.06306C5 1.47565 5.47697 0.999273 6.06556 0.999273H30.6638C31.2523 0.999273 31.7295 1.47565 31.7295 2.06306V31.9395Z" fill="#F4F5F5"/>
<path d="M9.20047 4.74812C8.36416 4.74812 7.68399 5.42715 7.68399 6.26149C7.68399 7.0966 8.36416 7.77583 9.20047 7.77583C10.0368 7.77583 10.717 7.0966 10.717 6.26149C10.717 5.42715 10.0368 4.74812 9.20047 4.74812ZM9.20047 8.38867C8.02583 8.38867 7.07031 7.43476 7.07031 6.26149C7.07031 5.0888 8.02583 4.13488 9.20047 4.13488C10.3755 4.13488 11.331 5.0888 11.331 6.26149C11.331 7.43476 10.3755 8.38867 9.20047 8.38867Z" fill="#FBC818"/>
<path d="M9.20047 10.3452C8.36416 10.3452 7.68399 11.0244 7.68399 11.8595C7.68399 12.6941 8.36416 13.3733 9.20047 13.3733C10.0368 13.3733 10.717 12.6941 10.717 11.8595C10.717 11.0244 10.0368 10.3452 9.20047 10.3452ZM9.20047 13.9863C8.02583 13.9863 7.07031 13.032 7.07031 11.8595C7.07031 10.6867 8.02583 9.73196 9.20047 9.73196C10.3755 9.73196 11.331 10.6867 11.331 11.8595C11.331 13.032 10.3755 13.9863 9.20047 13.9863Z" fill="#FBC818"/>
<path d="M9.20047 15.9645C8.36416 15.9645 7.68399 16.6438 7.68399 17.4785C7.68399 18.313 8.36416 18.992 9.20047 18.992C10.0368 18.992 10.717 18.313 10.717 17.4785C10.717 16.6438 10.0368 15.9645 9.20047 15.9645ZM9.20047 19.6055C8.02583 19.6055 7.07031 18.6514 7.07031 17.4785C7.07031 16.3056 8.02583 15.3519 9.20047 15.3519C10.3755 15.3519 11.331 16.3056 11.331 17.4785C11.331 18.6514 10.3755 19.6055 9.20047 19.6055Z" fill="#FBC818"/>
<path d="M9.20047 21.5624C8.36416 21.5624 7.68399 22.2416 7.68399 23.0761C7.68399 23.9111 8.36416 24.5901 9.20047 24.5901C10.0368 24.5901 10.717 23.9111 10.717 23.0761C10.717 22.2416 10.0368 21.5624 9.20047 21.5624ZM9.20047 25.2031C8.02583 25.2031 7.07031 24.2488 7.07031 23.0761C7.07031 21.9036 8.02583 20.9493 9.20047 20.9493C10.3755 20.9493 11.331 21.9036 11.331 23.0761C11.331 24.2488 10.3755 25.2031 9.20047 25.2031Z" fill="#FBC818"/>
<path d="M29.2437 5.03658C29.2437 5.37571 28.968 5.65039 28.6285 5.65039H14.4662C14.1263 5.65039 13.8506 5.37571 13.8506 5.03658C13.8506 4.69706 14.1263 4.42218 14.4662 4.42218H28.6285C28.968 4.42218 29.2437 4.69706 29.2437 5.03658Z" fill="#D6D6D6"/>
<path d="M27.1079 7.21002C27.1079 7.54953 26.8322 7.82422 26.4923 7.82422H14.4662C14.1263 7.82422 13.8506 7.54953 13.8506 7.21002C13.8506 6.87127 14.1263 6.59621 14.4662 6.59621H26.4923C26.8322 6.59621 27.1079 6.87127 27.1079 7.21002Z" fill="#D6D6D6"/>
<path d="M29.2437 10.8159C29.2437 11.1552 28.968 11.4297 28.6285 11.4297H14.4662C14.1263 11.4297 13.8506 11.1552 13.8506 10.8159C13.8506 10.4767 14.1263 10.2017 14.4662 10.2017H28.6285C28.968 10.2017 29.2437 10.4767 29.2437 10.8159Z" fill="#D6D6D6"/>
<path d="M29.2437 12.9895C29.2437 13.3286 28.968 13.6035 28.6285 13.6035H14.4662C14.1263 13.6035 13.8506 13.3286 13.8506 12.9895C13.8506 12.6504 14.1263 12.3753 14.4662 12.3753H28.6285C28.968 12.3753 29.2437 12.6504 29.2437 12.9895Z" fill="#D6D6D6"/>
<path d="M29.2437 21.9893C29.2437 22.3284 28.968 22.6035 28.6285 22.6035H14.4662C14.1263 22.6035 13.8506 22.3284 13.8506 21.9893C13.8506 21.6504 14.1263 21.3751 14.4662 21.3751H28.6285C28.968 21.3751 29.2437 21.6504 29.2437 21.9893Z" fill="#D6D6D6"/>
<path d="M29.2437 24.1633C29.2437 24.5025 28.968 24.7773 28.6285 24.7773H14.4662C14.1263 24.7773 13.8506 24.5025 13.8506 24.1633C13.8506 23.8242 14.1263 23.5491 14.4662 23.5491H28.6285C28.968 23.5491 29.2437 23.8242 29.2437 24.1633Z" fill="#D6D6D6"/>
<path d="M29.2437 16.3917C29.2437 16.7312 28.968 17.0059 28.6285 17.0059H14.4662C14.1263 17.0059 13.8506 16.7312 13.8506 16.3917C13.8506 16.0527 14.1263 15.7778 14.4662 15.7778H28.6285C28.968 15.7778 29.2437 16.0527 29.2437 16.3917Z" fill="#D6D6D6"/>
<path d="M18.3654 18.5635C18.3654 18.9031 18.0897 19.1777 17.7502 19.1777H14.4662C14.1263 19.1777 13.8506 18.9031 13.8506 18.5635C13.8506 18.2248 14.1263 17.9493 14.4662 17.9493H17.7502C18.0897 17.9493 18.3654 18.2248 18.3654 18.5635Z" fill="#D6D6D6"/>
<path d="M29.2432 29.4696C29.2432 29.8089 28.9674 30.084 28.6279 30.084H25.3441C25.0046 30.084 24.7285 29.8089 24.7285 29.4696C24.7285 29.1304 25.0046 28.856 25.3441 28.856H28.6279C28.9674 28.856 29.2432 29.1304 29.2432 29.4696Z" fill="#D6D6D6"/>
</svg>
