<svg width="1728" height="398" viewBox="0 0 1728 398" fill="none" xmlns="http://www.w3.org/2000/svg">
<g clip-path="url(#clip0_0_3)">
<rect width="1728" height="398" fill="#FB9B14"/>
<path d="M11.5 56.5C19.3333 84 56 136.4 140 126C245 113 392.5 289 536.5 230.5C680.5 172 861 27.5 1037.5 108.5C1214 189.5 1190 82.5 1312 95.5C1434 108.5 1442.5 226.5 1545 215.5C1627 206.7 1712.83 152.167 1745.5 126" stroke="#FBF4E5" stroke-opacity="0.3"/>
<path d="M25 156.5C44.5 130.333 104 82.8 186 102C288.5 126 273 232.5 321 230.5C369 228.5 556.5 67.0001 724 84.5C891.5 102 882.5 176 1155 102C1427.5 28 1547.5 156.5 1617 156.5C1672.6 156.5 1744.83 136.167 1774 126" stroke="#FBF4E5" stroke-opacity="0.3"/>
<path d="M1485 62L1451.23 12.5H1518.77L1485 62Z" fill="#FCE9C2" fill-opacity="0.3"/>
<path d="M1511 45L1477.23 -4.5H1544.77L1511 45Z" fill="#F7D692"/>
<path d="M1556 -12L1589.77 37.5L1522.23 37.5L1556 -12Z" fill="#F6CA6C"/>
</g>
<defs>
<clipPath id="clip0_0_3">
<rect width="1728" height="398" fill="white"/>
</clipPath>
</defs>
</svg>
